<svg viewBox="0 0 96 96" xmlns="http://www.w3.org/2000/svg" xmlns:xlink="http://www.w3.org/1999/xlink" id="Icons_NorthAmerica" overflow="hidden"><path d="M85.99 22.53 85.99 22.53 85.99 22.53 85.99 22.53Z" fill="#D9D9D9"/><path d="M90.11 20.58C89.5532 20.3939 88.966 20.3158 88.38 20.35 88.0548 20.3323 87.7414 20.4741 87.54 20.73 87.4609 20.8158 87.37 20.8898 87.27 20.95 86.9602 20.7928 86.6009 20.764 86.27 20.87L86 20.63 85.88 20.69C85.4622 20.9884 85.0168 21.2463 84.55 21.46 84.3561 21.5175 84.1803 21.6243 84.04 21.77 83.9795 21.8689 83.8526 21.9039 83.75 21.85 84.0478 21.448 84.4215 21.1083 84.85 20.85 85.0655 20.712 85.1853 20.4647 85.16 20.21 85.1534 20.1143 85.0905 20.0317 85 20 84.75 20 84.5 20 84.25 20.06 84.1475 20.0711 84.0611 20.1417 84.03 20.24 84.0102 20.2981 83.9869 20.3548 83.96 20.41L82.44 20.79C82.3742 20.805 82.3058 20.805 82.24 20.79 82.24 20.79 82.24 20.72 82.15 20.66L82.48 20.52 82.97 20.39C83.12 20.39 83.21 20.25 83.18 20.16 83.15 20.07 83.02 20.05 82.92 20.05 82.44 20.05 81.92 20.05 81.47 20.05 81.02 20.05 80.47 20.16 80.05 20.22 79.702 20.2495 79.3627 20.3445 79.05 20.5 78.89 20.58 78.82 20.5 78.77 20.26L80.21 19.87 80.35 19.87C80.48 19.87 80.62 19.87 80.75 19.87 81.3485 19.8099 81.9515 19.8099 82.55 19.87 82.7626 19.8948 82.9774 19.8948 83.19 19.87 83.4982 19.7936 83.8129 19.7467 84.13 19.73 84.4362 19.6941 84.7162 19.5397 84.91 19.3 84.5 19.05 84 19.14 83.56 18.99 83.3846 18.9605 83.2054 18.9605 83.03 18.99 83.03 18.88 83.15 18.78 83.03 18.66 82.9355 18.5886 82.8114 18.5698 82.7 18.61L82.7 18.61C82.1267 18.7351 81.5332 18.7351 80.96 18.61 80.8803 18.6004 80.7997 18.6004 80.72 18.61 80.3342 18.5945 79.9486 18.6453 79.58 18.76 79.2509 18.8253 78.914 18.8422 78.58 18.81 78.6648 18.6911 78.8041 18.6233 78.95 18.63 79.1678 18.6336 79.3854 18.6169 79.6 18.58 79.9807 18.5249 80.3656 18.5048 80.75 18.52 81.23 18.52 81.75 18.52 82.2 18.52 82.3254 18.4987 82.4469 18.4582 82.56 18.4 82.4844 18.3517 82.404 18.3115 82.32 18.28 81.9935 18.1974 81.6555 18.1703 81.32 18.2 80.93 18.3 80.62 17.98 80.24 18.03 80.1901 18.035 80.1399 18.035 80.09 18.03L79.45 18.03C78.9764 17.9016 78.4785 17.8913 78 18 77.9381 18.0192 77.8719 18.0192 77.81 18 77.41 17.9 77.02 18.09 76.62 18 76.62 18 76.52 18 76.5 18.07 76.4533 18.1435 76.3606 18.173 76.28 18.14 75.96 17.99 75.69 18.19 75.34 18.24 75.52 18.54 75.85 18.38 76.07 18.53L75.26 18.73 75.35 19.03 74.78 18.73 74.78 18.59C74.4812 18.5526 74.1788 18.5526 73.88 18.59 73.7142 18.5752 73.5537 18.524 73.41 18.44 73.2377 18.3239 73.0123 18.3239 72.84 18.44 72.6659 18.5453 72.4561 18.5742 72.26 18.52 72.1024 18.4772 71.934 18.5231 71.82 18.64 71.82 18.76 71.9 18.86 72.05 18.86 72.2 18.86 72.45 18.86 72.65 18.86 73.2151 18.8545 73.7789 18.9149 74.33 19.04 74.61 19.1 74.64 19.14 74.61 19.49 74.3441 19.3102 74.0388 19.197 73.72 19.16 73.66 19.21 73.72 19.34 73.59 19.34 73.35 19.08 73.35 19.07 73.05 19.07L71.94 19.07C71.88 19.07 71.8 19.07 71.79 19.19L72.36 19.46C72.4139 19.4989 72.4611 19.5461 72.5 19.6 72.22 19.68 72.21 19.7 72.11 19.6 71.8768 19.4101 71.5972 19.2858 71.3 19.24 71.07 19.17 70.96 19.24 70.65 19.34 70.748 19.4974 70.9077 19.6062 71.09 19.64 71.2853 19.6794 71.4739 19.7467 71.65 19.84 71.7784 19.9099 71.9288 19.9278 72.07 19.89 72.07 19.97 72.07 20.04 72.12 20.12 72.17 20.2 72.23 20.25 72.12 20.37 72.0434 20.3755 71.9666 20.3755 71.89 20.37 71.6573 20.3543 71.4361 20.263 71.26 20.11 71.1811 20.0572 71.0928 20.0199 71 20 70.5279 19.9116 70.068 19.7672 69.63 19.57 69.3049 19.4791 68.9666 19.4453 68.63 19.47 68.79 19.86 68.8 19.85 69.02 19.99 69.24 20.13 69.28 20.06 69.32 20.24L68.91 20.41 68.91 20.41 67.84 20.11 67.84 20.11C67.73 20.11 67.61 20.11 67.54 20.23 67.5206 20.2938 67.4864 20.3521 67.44 20.4L67.12 20.67 67.06 20.67C66.99 20.57 67.06 20.48 67.06 20.39 67.1625 20.1276 67.0329 19.8319 66.7705 19.7294 66.6715 19.6908 66.563 19.684 66.46 19.71L66.22 19.76C65.9319 19.8333 65.637 19.8769 65.34 19.89 65.004 19.9252 64.6702 19.9786 64.34 20.05 64.2604 20.076 64.1833 20.1095 64.11 20.15 64.35 20.3 64.6 20.39 64.63 20.67 64.5 20.62 64.36 20.62 64.26 20.48 64.1918 20.4104 64.105 20.3618 64.01 20.34 63.6316 20.2225 63.2204 20.2813 62.89 20.5L63.1 20.85C62.89 20.98 63.04 21.15 63.02 21.29 62.8853 21.4033 62.6952 21.4232 62.54 21.34 62.3812 21.2437 62.1917 21.2115 62.01 21.25 61.64 21.4 61.22 21.38 60.91 21.68 60.8085 21.7901 60.676 21.8668 60.53 21.9 60.2462 21.9905 59.9743 22.1148 59.72 22.27 59.64 22.27 59.56 22.35 59.57 22.47 59.659 22.5883 59.8025 22.6525 59.95 22.64 60.095 22.657 60.2386 22.6837 60.38 22.72 60.53 22.72 60.66 22.6 60.81 22.72L60.9 23.42C60.6661 23.7373 60.2942 23.9232 59.9 23.92 59.4203 23.8692 58.9376 23.982 58.53 24.24 58.4724 24.275 58.4072 24.2955 58.34 24.3 58.1291 24.3399 57.9218 24.3968 57.72 24.47 57.49 24.58 57.25 24.47 57.04 24.59L56.99 24.59C56.65 24.68 56.62 24.71 56.6 25.11 56.9265 25.3664 57.3356 25.4944 57.75 25.47 57.75 25.47 57.87 25.47 57.88 25.47 57.94 25.68 58.12 25.47 58.22 25.58 58.32 25.69 58.28 25.79 58.38 25.82 58.48 25.85 58.76 25.68 58.93 25.72 59.1398 25.7751 59.3602 25.7751 59.57 25.72 59.63 25.72 59.69 25.65 59.75 25.65 59.8494 25.6349 59.9506 25.6349 60.05 25.65 60.1478 25.6677 60.2128 25.7614 60.1951 25.8592 60.1938 25.8662 60.1921 25.8732 60.19 25.88 60.0846 25.9865 59.9398 26.0445 59.79 26.04 59.56 26.04 59.32 26.04 59.09 26.04 59.01 26.04 58.88 26.04 58.86 26.1 58.84 26.16 58.65 26.22 58.53 26.2 58.1943 26.1292 57.845 26.1641 57.53 26.3 57.5055 26.3267 57.4852 26.3571 57.47 26.39L57.78 26.64 58.14 26.53C58.1654 26.666 58.2929 26.7583 58.43 26.74L58.93 26.74C58.99 26.74 59.07 26.74 59.09 26.86 58.9 26.95 58.65 26.92 58.49 27.1 58.8304 27.3955 59.2694 27.5525 59.72 27.54L59.72 27.29C59.89 27.19 60.01 27.46 60.16 27.29 60.2236 27.2443 60.3029 27.2263 60.38 27.24 60.46 27.24 60.5 27.38 60.56 27.45 60.7331 27.4072 60.9035 27.3538 61.07 27.29 61.19 27.24 61.27 27.2 61.39 27.29 61.51 27.38 61.55 27.29 61.61 27.29 61.701 27.1899 61.8452 27.1579 61.97 27.21L62.36 27.28C62.6229 27.3179 62.8834 27.3713 63.14 27.44 63.56 27.57 63.97 27.75 64.39 27.9 64.5413 27.9344 64.6439 28.0754 64.63 28.23 64.63 28.5 64.76 28.62 64.98 28.71 65.1682 28.7664 65.3331 28.8822 65.45 29.04 65.5192 29.108 65.6006 29.1623 65.69 29.2 65.7262 29.4121 65.7936 29.6176 65.89 29.81 66 29.99 65.95 30.24 66.15 30.38 66.2006 30.4231 66.2328 30.4839 66.24 30.55 66.2665 30.7116 66.3661 30.8518 66.51 30.93 66.626 31.0049 66.6593 31.1597 66.5844 31.2756 66.5651 31.3054 66.5398 31.3308 66.51 31.35 66.4593 31.3926 66.4019 31.4264 66.34 31.45 66.46 31.67 66.46 31.67 66.34 31.78 66.299 31.8103 66.2555 31.837 66.21 31.86L66.21 31.86 66.39 32.05 66.2 32.18C66.1227 32.2228 66.0947 32.3201 66.1375 32.3975 66.152 32.4238 66.1737 32.4454 66.2 32.46 66.3781 32.5532 66.582 32.5849 66.78 32.55 66.84 32.55 66.94 32.49 66.94 32.45 66.94 32.2 67.22 32.2 67.31 32.04 67.4582 32.0735 67.5767 32.1844 67.62 32.33L67.62 32.33C67.7 32.25 67.76 32.27 67.81 32.33 67.86 32.39 67.52 32.49 67.54 32.7 67.56 32.91 67.79 32.7 67.9 32.6L67.9 32.6 68.22 32.43C68.3189 32.623 68.4291 32.81 68.55 32.99 68.7197 33.144 68.799 33.3741 68.76 33.6 68.5636 33.6094 68.3689 33.5607 68.2 33.46 67.8201 33.2531 67.3925 33.1497 66.96 33.16 66.89 33.16 66.82 33.22 66.74 33.25 66.98 33.5 66.98 33.49 67.17 33.53 67.3198 33.5413 67.466 33.5821 67.6 33.65 67.8963 33.8415 68.2491 33.9261 68.6 33.89 68.71 33.89 68.82 33.89 68.91 33.89 69.08 34.23 68.61 34.37 68.71 34.67L68.76 34.67C68.84 34.67 68.94 34.67 68.94 34.76 68.94 34.85 68.87 34.87 68.78 34.87 68.69 34.87 68.56 34.87 68.55 35.05 68.5442 35.1232 68.5442 35.1968 68.55 35.27 68.376 35.3535 68.1805 35.3815 67.99 35.35 67.79 35.35 67.77 35.35 67.69 35.63 67.69 35.63 67.69 35.71 67.69 35.71 67.4 35.8 66.97 36.58 67.12 36.81L67.55 36.97C67.55 37.08 67.35 37.08 67.39 37.22 67.43 37.36 67.17 37.28 67.18 37.5 67.5054 37.8982 67.7808 38.3348 68 38.8L68 38.8C67.94 38.95 67.88 39.1 68.07 39.24 68.2097 39.0292 68.4241 38.8791 68.67 38.82 68.782 38.7844 68.9045 38.82 68.98 38.91 68.98 38.97 68.98 39.06 68.98 39.13L68.81 39 68.42 39.54C68.3083 39.6842 68.3083 39.8858 68.42 40.03 68.55 40.28 68.83 40.34 68.98 40.56L68.98 40.92C69.0912 41.0047 69.2081 41.0816 69.33 41.15 69.45 41.21 69.42 41.45 69.65 41.37L69.65 41.72 69.81 41.72 70.05 41.95C70.3052 42.2255 70.7084 42.3062 71.05 42.15 71.12 42.15 71.24 42.15 71.34 42.15L71.34 42.05 71.34 42.05C71.34 42.05 71.34 42.12 71.34 42.13 71.46 42.29 71.53 42.43 71.72 42.5 71.91 42.57 71.85 42.71 71.89 42.82L72.3 42.98 72.3 42.98C72.37 42.88 72.45 42.92 72.52 42.98L72.52 42.98C72.67 42.98 72.82 42.92 72.8 42.7 72.7906 42.6538 72.7906 42.6062 72.8 42.56 72.87 42.47 72.97 42.39 72.8 42.27 72.63 42.15 72.8 42.21 72.8 42.2 72.99 42.1 72.95 41.88 73.05 41.74 72.98 41.66 72.98 41.61 73.05 41.55 73.12 41.49 73.18 41.44 73.17 41.41 73.16 41.38 73.25 41.1 73.09 40.99 72.93 40.88 72.99 40.79 73.09 40.67 73.1259 40.5773 73.2301 40.5312 73.3228 40.567 73.3252 40.568 73.3276 40.569 73.33 40.57 73.3815 40.573 73.4321 40.555 73.47 40.52 73.54 40.52 73.54 40.42 73.47 40.37 73.4634 40.3336 73.4634 40.2964 73.47 40.26L73.79 40.26C73.71 39.93 74.13 39.95 74.19 39.68L74.19 39.49C74.1 39.39 73.93 39.49 73.89 39.31 73.9999 39.2596 74.1067 39.2029 74.21 39.14 74.2708 39.0922 74.2812 39.0042 74.2334 38.9434 74.2266 38.9347 74.2187 38.9268 74.21 38.92 74.21 38.92 74.16 38.92 74.13 38.86 74.1 38.8 73.98 38.76 74.01 38.66 74.04 38.56 74.16 38.56 74.26 38.55L74.52 38.55 74.57 38.48 74.57 38.38C74.57 38.09 74.57 38.07 74.88 38.07 75.0953 38.1015 75.315 38.0666 75.51 37.97L75.78 37.42 75.98 37.42C75.98 37.66 75.75 37.81 75.78 38.03 75.84 38.03 75.89 38.03 75.9 38.03 76.1014 37.8249 76.3729 37.7035 76.66 37.69 76.7406 37.6863 76.8163 37.6502 76.87 37.59 76.9821 37.4673 77.1348 37.3891 77.3 37.37 77.4119 37.3429 77.5152 37.2879 77.6 37.21 77.8263 37.0432 78.0083 36.8234 78.13 36.57 78.28 36.252 78.5442 36.0021 78.87 35.87 78.87 35.87 78.87 35.87 78.94 35.77L78.77 35.3 79.1 35.57C79.3205 35.7287 79.6059 35.7662 79.86 35.67 80.07 35.6 80.25 35.45 80.49 35.53 80.49 35.53 80.55 35.53 80.59 35.53L81.99 35.19C82.1887 35.1492 82.3742 35.0599 82.53 34.93 82.6601 34.8037 82.8044 34.693 82.96 34.6 83.4 34.35 83.85 34.12 84.3 33.87 83.9613 33.8517 83.6257 33.7947 83.3 33.7 82.8162 33.5898 82.3138 33.5898 81.83 33.7 81.83 33.7 81.75 33.76 81.71 33.78 81.5 33.91 81.45 33.91 81.11 33.78L81.97 33.54 81.97 33.43 81.63 33.43C81.7193 33.3342 81.8579 33.3025 81.98 33.35 81.98 33.26 82.1 33.27 82.21 33.26 82.3394 33.2488 82.467 33.2219 82.59 33.18 82.6563 33.1402 82.6777 33.0542 82.6379 32.9879 82.6261 32.9682 82.6096 32.9518 82.59 32.94 82.5257 32.8944 82.4488 32.8699 82.37 32.87 82.13 32.87 81.89 32.96 81.65 33.01L81.65 33.01 81.39 33.24 81.12 33.5C81.12 33.4 81.03 33.34 81.04 33.3 81.05 33.26 81.16 33.1 81.19 32.99 81.22 32.88 81.31 32.73 81.47 32.8 81.7706 32.8985 82.098 32.8734 82.38 32.73 82.46 32.73 82.51 32.59 82.59 32.49 82.4925 32.4439 82.3923 32.4039 82.29 32.37 82.15 32.37 82.02 32.37 81.89 32.37 81.76 32.37 81.69 32.37 81.65 32.31 81.4688 32.1097 81.2376 31.9613 80.98 31.88 81.04 31.88 81.06 31.81 81.09 31.81 81.2886 31.8284 81.4752 31.9129 81.62 32.05 81.7607 32.1946 81.9591 32.268 82.16 32.25 82.3826 32.226 82.6048 32.2989 82.77 32.45 82.8193 32.4947 82.8834 32.5197 82.95 32.52 83.21 32.52 83.31 32.73 83.39 32.93 83.4884 33.2238 83.7706 33.416 84.08 33.4 84.1386 33.3818 84.1884 33.3426 84.22 33.29 84.22 33.24 84.22 33.15 84.31 33.14 84.4 33.13 84.49 33.46 84.75 33.33 84.7327 33.0262 84.6858 32.7247 84.61 32.43L84.3 32.51C84.35 32.27 84.03 32.19 84.12 31.92 83.7687 31.7102 83.4008 31.5296 83.02 31.38 83.02 31.25 83.02 31.12 82.88 31.07 82.7592 31.0152 82.6207 31.0152 82.5 31.07 82.3976 31.1404 82.2624 31.1404 82.16 31.07L82.87 30.81C83.08 30.73 83.18 30.76 83.23 30.99 83.2665 31.1732 83.3951 31.3244 83.57 31.39 83.81 31.5 84.06 31.59 84.31 31.68 84.31 31.68 84.31 31.68 84.39 31.68L84.26 31.49 84.38 31.38 84 31.08C84.122 31.1051 84.2457 31.1218 84.37 31.13 84.4188 31.1262 84.4613 31.0953 84.48 31.05 84.4963 31.0151 84.4963 30.9749 84.48 30.94 84.1703 30.8258 83.8695 30.6887 83.58 30.53 83.305 30.3915 82.9771 30.4106 82.72 30.58 82.6574 30.6332 82.5812 30.6679 82.5 30.68L81.81 30.74C81.81 30.74 81.68 30.81 81.67 30.68 81.94 30.68 82.18 30.48 82.47 30.55 82.5027 30.5589 82.5373 30.5589 82.57 30.55 82.77 30.44 82.98 30.34 83.18 30.22 83.38 30.1 83.32 30.07 83.4 30.04 83.48 30.01 83.53 30.2 83.62 30.26 83.8892 30.4583 84.2157 30.5636 84.55 30.56 84.5827 30.5694 84.6173 30.5694 84.65 30.56 84.8808 30.4175 85.1491 30.3478 85.42 30.36L85.42 30.02 85 29.76C84.9228 29.7299 84.8372 29.7299 84.76 29.76 84.6866 29.8092 84.5872 29.7895 84.538 29.7161 84.5305 29.7049 84.5245 29.6927 84.52 29.68 84.46 29.57 84.52 29.49 84.66 29.44 84.8361 29.5493 85.0443 29.5951 85.25 29.57 85.42 29.57 85.47 29.45 85.53 29.33 85.76 29.33 86 29.56 86.23 29.25 86.1633 29.1836 86.0855 29.1294 86 29.09L85.4 29C85.33 28.83 85.4 28.65 85.22 28.56L85.31 28.42C85.31 28.33 85.11 28.35 85.14 28.21 85.27 28.21 85.4 28.21 85.52 28.27 85.6656 28.3055 85.8091 28.3489 85.95 28.4 86.12 28.25 86.05 28.08 85.95 27.9 85.85 27.72 85.61 27.58 85.33 27.55 85.45 27.43 85.65 27.55 85.68 27.31 85.41 27.23 85.12 27.31 84.87 27.24L84.58 26.87 84.44 26.99 84.36 26.9C84.36 26.82 84.28 26.75 84.36 26.67 84.44 26.59 84.52 26.53 84.62 26.6 84.762 26.6959 84.948 26.6959 85.09 26.6 85.3677 26.442 85.7014 26.4163 86 26.53 86.1425 26.5759 86.2905 26.6028 86.44 26.61 86.5055 26.6087 86.5673 26.5797 86.61 26.53 86.6903 26.416 86.6903 26.264 86.61 26.15 86.54 26.06 86.42 26.04 86.26 26.15L86.14 26.2C86.005 26.1262 85.8646 26.0626 85.72 26.01 85.5539 25.9578 85.4407 25.8041 85.44 25.63L86.23 25.7C86.09 25.6 86.04 25.54 85.99 25.53 85.94 25.52 85.6 25.45 85.41 25.39 85.2711 25.322 85.1034 25.3794 85.0354 25.5183 85.0335 25.5222 85.0317 25.5261 85.03 25.53L84.92 25.69 84.65 25.61 84.89 25.14C84.9882 24.9651 85.0686 24.7809 85.13 24.59 85.23 24.24 85.22 24.24 85.57 24.2L85.73 24.2C85.73 24.13 85.73 24.03 85.83 23.99 85.9871 23.8947 86.0641 23.7084 86.02 23.53 86.02 23.32 86.11 23.1 86.47 23.12L86.67 23.12C86.9007 23.1329 87.1091 22.9829 87.17 22.76 87.1039 22.7475 87.0361 22.7475 86.97 22.76 86.82 22.76 86.67 22.76 86.52 22.76 86.2234 22.7115 85.9249 22.8355 85.75 23.08 85.62 23.08 85.54 22.99 85.58 22.86 85.62 22.73 85.7 22.55 85.93 22.62 86.05 22.44 86.23 22.45 86.42 22.47L87.42 22.53C87.6327 22.5419 87.8366 22.4437 87.96 22.27 87.8893 22.2243 87.8116 22.1905 87.73 22.17L87.13 22.17C86.9728 22.1581 86.8229 22.0988 86.7 22 86.89 21.92 87.04 21.86 87.2 21.81 87.2754 21.7905 87.3546 21.7905 87.43 21.81 87.8389 21.8974 88.2637 21.8733 88.66 21.74 88.7427 21.7285 88.8215 21.6977 88.89 21.65 88.9327 21.5648 88.963 21.4738 88.98 21.38 89.4956 21.3425 89.9907 21.1625 90.41 20.86 90.3691 20.7186 90.2539 20.611 90.11 20.58ZM69 20.53C69 20.53 68.91 20.43 68.86 20.38 68.9251 20.394 68.9887 20.4141 69.05 20.44 69.05 20.44 69.05 20.44 69.05 20.51 69.05 20.58 69 20.54 69 20.53ZM83.1 31.41C83 31.49 82.9 31.56 82.75 31.41 82.8539 31.3582 82.9761 31.3582 83.08 31.41Z" fill="#D9D9D9"/><path d="M46.22 20.63C46.3435 20.538 46.4967 20.4952 46.65 20.51 46.7136 20.5227 46.7745 20.5464 46.83 20.58 46.83 20.72 46.6 20.68 46.62 20.87L47.62 20.68 47.76 20.68C47.8063 20.6716 47.8537 20.6716 47.9 20.68 47.4773 20.7167 47.0808 20.9007 46.78 21.2 46.88 21.2 46.96 21.31 47.05 21.3 47.7484 21.3163 48.4455 21.2321 49.12 21.05 49.2482 21.0195 49.3786 20.9994 49.51 20.99 49.51 20.99 49.39 21.11 49.32 21.16 49.25 21.21 49.32 21.21 49.27 21.24L49.39 21.24 49.72 21.24C49.6251 21.3184 49.496 21.3412 49.38 21.3 49.32 21.5 49.11 21.5 48.98 21.63 48.85 21.76 48.8 21.72 48.84 21.91 49.17 21.91 49.51 21.98 49.84 21.98 50.0549 21.9923 50.259 21.8845 50.37 21.7L51.2 21.7C51.2 21.87 50.92 21.77 50.87 21.95 51.4192 21.9363 51.9627 21.8351 52.48 21.65 52.5722 21.6083 52.6542 21.5469 52.72 21.47 52.9788 21.1789 53.3338 20.9907 53.72 20.94L53.9 20.89 53.9 21C53.83 21 53.78 21 53.71 21 53.71 21.17 53.48 21.15 53.37 21.24 53.26 21.33 53.14 21.37 53.13 21.54 53.47 21.54 53.82 21.46 54.13 21.63 53.9728 21.6712 53.8121 21.698 53.65 21.71 53.44 21.71 53.23 21.77 53.01 21.81 53.01 21.81 53.01 21.81 53.01 21.87L53.24 21.96C52.8458 22.075 52.4399 22.1455 52.03 22.17 51.65 22.26 51.24 22.25 50.83 22.35 50.9303 22.5111 51.0873 22.6288 51.27 22.68 51.38 22.68 51.5 22.75 51.54 22.87 51.58 22.99 51.78 23.09 51.95 23.11 52.12 23.13 52.23 23.11 52.36 23.11 52.0528 23.3232 51.6395 23.2985 51.36 23.05 51.0465 22.8271 50.7115 22.6362 50.36 22.48 50.2674 22.4423 50.1696 22.4187 50.07 22.41 49.75 22.41 49.44 22.41 49.07 22.41 48.9906 22.396 48.9094 22.396 48.83 22.41 48.772 22.4523 48.7593 22.5337 48.8016 22.5916 48.8096 22.6025 48.8191 22.6121 48.83 22.62 48.83 22.62 48.95 22.62 49.01 22.69 49.07 22.76 49.01 22.69 49.01 22.75 49.01 22.81 48.83 22.8 48.89 22.95 48.9856 22.9952 49.0864 23.0288 49.19 23.05 49.4066 23.0795 49.6054 23.186 49.75 23.35 49.9062 23.4982 50.0697 23.6383 50.24 23.77 50.24 23.77 50.24 23.83 50.24 23.86L49.9 23.86C49.9 23.92 49.96 23.96 49.98 23.96L50.81 24.1C50.9601 24.1373 51.1189 24.1121 51.25 24.03L51.44 23.98C51.38 24.19 51.38 24.19 51.32 24.2 51.26 24.21 51.03 24.2 50.9 24.26L51.06 24.53C50.5994 24.2899 50.0894 24.1598 49.57 24.15 49.0648 24.0689 48.5582 24.2871 48.27 24.71 48.2116 24.7717 48.2116 24.8683 48.27 24.93 48.33 24.93 48.39 25.01 48.45 25 48.51 24.99 48.84 24.89 49 25.09 49.1115 25.0659 49.2217 25.0359 49.33 25 49.43 25 49.48 24.84 49.61 24.83 49.61 25.08 49.45 25.16 49.34 25.3 49.3826 25.4756 49.5102 25.6182 49.68 25.68 49.8578 25.7197 50.0422 25.7197 50.22 25.68 50.31 25.68 50.39 25.68 50.48 25.68 50.57 25.68 50.48 25.61 50.48 25.58 50.58 25.35 50.59 25.34 50.91 25.17 50.78 25.45 50.82 25.5 50.53 25.73L50.25 25.73C50.34 25.85 50.25 25.82 50.25 25.87 50.0774 25.8926 49.9026 25.8926 49.73 25.87 49.46 25.87 49.18 25.87 48.99 25.55 48.8 25.23 48.31 25.15 47.82 25.41 47.9056 25.5077 47.9794 25.6151 48.04 25.73 48.11 25.88 48.36 25.73 48.4 25.98 48.31 26.03 48.2 26.15 48.12 26.13 47.7646 26.1397 47.4186 26.247 47.12 26.44 47.1088 26.5163 47.1088 26.5937 47.12 26.67 47.1415 26.7433 47.1831 26.8091 47.24 26.86 47.3146 26.9067 47.4129 26.8843 47.46 26.81L47.62 26.63 47.79 26.96 48.14 26.96C48.2 26.96 48.27 26.89 48.32 26.91 48.37 26.93 48.63 26.91 48.79 26.91 48.9516 26.9382 49.1093 26.9851 49.26 27.05 49.3598 27.06 49.4603 27.06 49.56 27.05 49.56 27.05 49.56 27.05 49.63 27.05L49.63 26.87C49.782 26.9313 49.9547 26.9126 50.09 26.82 50.31 26.99 50.57 26.82 50.81 26.95 51.05 27.08 51.03 26.95 51.13 26.76 51.13 26.76 51.13 26.69 51.04 26.69L51.04 26.69 51.13 26.69C51.27 26.81 51.38 26.96 51.6 26.89 51.6833 26.8776 51.7678 26.9033 51.83 26.96 51.89 27.02 51.89 27.13 51.93 27.23 52.29 27.13 52.68 27.17 52.93 26.89 52.9642 26.8555 53.0115 26.8373 53.06 26.84 53.32 26.93 53.39 26.72 53.52 26.6 53.37 26.33 53.36 26.32 53.19 26.39 53.02 26.46 53.07 26.46 53.01 26.48 52.95 26.5 52.8 26.4 52.78 26.29 52.76 26.18 52.68 26 52.51 26.06 52.3649 26.0899 52.2151 26.0899 52.07 26.06 51.9037 26.045 51.7363 26.045 51.57 26.06 51.4901 26.0552 51.4099 26.0552 51.33 26.06 51.33 26.06 51.26 26.06 51.26 26.01 51.2548 25.9735 51.2548 25.9365 51.26 25.9 51.46 25.9 51.26 25.68 51.42 25.68 51.8921 25.8966 52.4202 25.9596 52.93 25.86 53.0794 25.8411 53.221 25.7824 53.34 25.69 53.3724 25.6518 53.4024 25.6118 53.43 25.57L53.31 25.15C53.3659 25.1372 53.4241 25.1372 53.48 25.15 53.7494 25.24 54.0406 25.24 54.31 25.15 54.37 25.15 54.44 25.15 54.51 25.15 54.58 25.15 54.51 25.15 54.51 25.09 54.51 25.03 54.3 25.09 54.33 24.91 54.36 24.73 54.68 24.91 54.78 24.76L54.54 24.53 54.76 24.53C54.8433 24.5348 54.9267 24.5348 55.01 24.53 55.0541 24.5127 55.0875 24.4757 55.1 24.43 55.1 24.38 55.1 24.29 55.02 24.27 54.9315 24.2303 54.8367 24.2066 54.74 24.2 54.66 24.2 54.55 24.2 54.5 24.2 54.1946 24.0306 53.8329 23.9944 53.5 24.1 53.5 24.1 53.5 24.1 53.43 24.04 53.56 23.88 53.79 24.04 53.92 23.91 53.85 23.79 53.63 23.8 53.64 23.59 53.7089 23.5279 53.7825 23.471 53.86 23.42 53.91 23.42 54.03 23.42 54.03 23.42 54.03 23.42 54.17 23.55 54.26 23.53 54.3794 23.4771 54.5096 23.4531 54.64 23.46 55.0923 23.5061 55.5491 23.4549 55.98 23.31 55.9741 23.2301 55.9741 23.1499 55.98 23.07L55.98 23.07C56.315 23.1894 56.6845 23.164 57 23 57.08 23 57.22 22.94 57.22 22.91 57.22 22.66 57.48 22.73 57.55 22.58L57.38 22.44 57.8 22.37C57.8 22.37 57.8 22.29 57.8 22.25 58.0624 22.22 58.3063 22.0999 58.49 21.91 58.5349 21.8624 58.5894 21.8249 58.65 21.8L60.13 21.07C60.29 21 60.47 20.97 60.65 20.91 60.83 20.85 60.81 20.86 60.75 20.71L60.12 20.78 58.57 21.05C58.57 20.95 58.7 20.93 58.79 20.9 59.1 20.79 59.45 20.83 59.72 20.58 59.7814 20.5579 59.8486 20.5579 59.91 20.58 60.28 20.58 60.62 20.28 61.01 20.42 61.01 20.42 61.08 20.42 61.11 20.42 61.6897 20.2734 62.2454 20.0444 62.76 19.74 62.76 19.74 62.76 19.68 62.76 19.63 62.6883 19.5703 62.6072 19.523 62.52 19.49 62.3484 19.4509 62.1748 19.4208 62 19.4 61.9376 19.4153 61.8724 19.4153 61.81 19.4 61.7203 19.3585 61.639 19.3008 61.57 19.23 61.4946 19.1584 61.4244 19.0816 61.36 19 61.1791 19.038 60.9909 19.0205 60.82 18.95 60.82 18.95 60.75 18.95 60.73 18.95 60.44 19.07 60.1 18.95 59.81 19.11 59.6284 19.2168 59.4091 19.2387 59.21 19.17 59.31 19.03 59.53 19.09 59.56 18.91 59.0311 18.8476 58.5089 18.7371 58 18.58 57.72 18.58 57.39 18.49 57.18 18.79L56.91 18.59C56.64 18.67 56.33 18.59 56.12 18.81L56.2 19.01C56.0451 19.0101 55.8956 18.9532 55.78 18.85 55.6351 18.7355 55.4546 18.6753 55.27 18.68L54.32 18.68 54.03 18.68 54.79 19.23C54.79 19.23 54.79 19.23 54.79 19.29 54.79 19.35 54.69 19.29 54.66 19.29 54.4785 19.2126 54.3045 19.1189 54.14 19.01 53.9984 18.8903 53.8146 18.8326 53.63 18.85 53.3647 18.8819 53.0956 18.8581 52.84 18.78 52.7126 18.742 52.5747 18.7681 52.47 18.85L52.47 19.13C52.22 19.13 52.05 18.93 51.82 19.02L51.97 19.29C51.79 19.39 51.69 19.29 51.56 19.29 51.4844 19.2721 51.4056 19.2721 51.33 19.29 51.33 19.5 51.05 19.38 50.98 19.56 51.0276 19.5968 51.0777 19.6302 51.13 19.66 51.3167 19.7333 51.5067 19.7933 51.7 19.84 51.8337 19.858 51.9479 19.9455 52 20.07L50.86 19.77 50.94 20.04C50.88 20.04 50.81 20.04 50.79 20.04 50.5331 19.7583 50.1712 19.5954 49.79 19.59 49.73 19.59 49.67 19.53 49.61 19.52 49.55 19.51 49.37 19.52 49.33 19.64 49.29 19.76 49.19 19.77 49.09 19.79 48.99 19.81 48.89 19.79 48.83 19.9 48.94 20.03 49.11 19.95 49.24 20.01 49.37 20.07 49.34 20.12 49.24 20.23 49.0168 20.0881 48.7425 20.0515 48.49 20.13 48.4288 20.153 48.3612 20.153 48.3 20.13 47.9971 19.9747 47.6323 20.0058 47.36 20.21 47.2268 20.305 47.0618 20.3445 46.9 20.32 46.5227 20.2791 46.1439 20.3827 45.84 20.61 46 20.65 46.1 20.72 46.22 20.63ZM58.53 21.09C58.3769 21.1609 58.2083 21.1918 58.04 21.18 58.1727 21.0588 58.3629 21.0238 58.53 21.09ZM57.74 22.17 57.8 22.17C57.8043 22.1931 57.8043 22.2169 57.8 22.24L57.75 22.18C57.75 22.18 57.73 22.18 57.74 22.17ZM57.23 18.78 57.14 18.78 57.14 18.78Z" fill="#D9D9D9"/><path d="M57.22 32.61C56.86 32.13 56.44 32.26 56.03 32.52L55.74 32.38 55.74 32.15C55.6457 32.1846 55.5487 32.2114 55.45 32.23 55.35 32.23 55.37 32.44 55.23 32.37 55.16 32.12 55.34 32.05 55.49 31.95 55.64 31.85 55.49 31.89 55.49 31.83L55.06 31.74C55.06 31.54 55.06 31.35 54.8 31.32 54.5375 31.2781 54.2797 31.2112 54.03 31.12 53.7388 31.0413 53.4276 31.121 53.21 31.33L53.32 31.53C53.16 31.53 53.02 31.53 52.98 31.76 52.9907 31.7925 52.9907 31.8275 52.98 31.86 52.98 31.86 52.98 31.86 52.89 31.86L52.89 31.51 52.46 31.44C52.3522 31.5994 52.2037 31.7272 52.03 31.81 51.9288 31.7657 51.8827 31.6478 51.927 31.5466 51.9279 31.5444 51.929 31.5422 51.93 31.54L52.15 31.05C52.07 30.89 52.04 30.7 51.93 30.61 51.8125 30.522 51.7251 30.3997 51.68 30.26 51.6437 30.1242 51.5206 30.0298 51.38 30.03 51.0657 29.9958 50.7477 30.0335 50.45 30.14L49.63 30.48 49.68 30.61C49.53 30.61 49.52 30.78 49.41 30.84 49.3 30.9 49.25 31.01 49.3 31.17 49.3332 31.2824 49.433 31.3622 49.55 31.37 49.66 31.37 49.68 31.46 49.69 31.55 49.7 31.64 49.33 31.6 49.3 31.83 49.27 32.06 49.48 32.12 49.68 32.15 49.88 32.18 49.87 32.28 49.82 32.36 49.78 32.4358 49.6875 32.4667 49.61 32.43 49.4016 32.362 49.2105 32.2493 49.05 32.1 48.8565 31.9615 48.7594 31.7245 48.8 31.49 48.8199 31.3923 48.7899 31.2911 48.72 31.22 48.72 31.15 48.66 31.07 48.62 31 48.7362 30.8096 48.863 30.626 49 30.45 49.1695 30.2879 49.3499 30.1375 49.54 30 49.199 29.8682 48.821 29.8682 48.48 30 48.1639 30.0434 47.8643 30.1674 47.61 30.36 47.3 30.57 47.25 30.95 47.03 31.22 46.81 31.49 46.94 31.62 46.89 31.83 46.8598 32.0289 46.8598 32.2311 46.89 32.43 47.1552 32.5573 47.4459 32.6223 47.74 32.62 47.949 32.6282 48.1464 32.718 48.29 32.87 48.1406 32.9522 47.9664 32.9771 47.8 32.94 47.6869 32.9303 47.5731 32.9303 47.46 32.94 47.36 32.94 47.25 32.94 47.23 33.11 47.5369 33.5464 48.0919 33.7327 48.6 33.57 48.6428 33.579 48.6835 33.596 48.72 33.62 48.8767 33.8245 49.1407 33.9152 49.39 33.85 49.4727 33.835 49.5573 33.835 49.64 33.85 49.9139 33.9215 50.1975 33.9485 50.48 33.93 50.5925 33.9106 50.7075 33.9106 50.82 33.93 51.0061 34.0046 51.2138 34.0046 51.4 33.93L51.4 33.93C51.5219 33.7847 51.7204 33.7292 51.9 33.79 52.0979 33.8153 52.2924 33.8623 52.48 33.93 52.6515 33.9902 52.8385 33.9902 53.01 33.93 53.01 33.69 53.01 33.69 52.63 33.45L52.92 33.28C53.04 33.38 53.13 33.48 53.23 33.56 53.33 33.64 53.35 33.65 53.4 33.64 53.69 33.58 53.66 33.83 53.72 33.95L54.11 34.1C54.16 34.34 54.37 34.4 54.57 34.48 54.6424 34.5138 54.7097 34.5576 54.77 34.61 54.828 34.6523 54.8407 34.7337 54.7984 34.7916 54.7904 34.8025 54.7809 34.8121 54.77 34.82L54.35 34.95 54.35 35.1C54.5014 35.1114 54.6515 35.0649 54.77 34.97 54.9116 34.8858 55.0757 34.8474 55.24 34.86L55.49 35.27 55.81 35.2 55.88 35.49 56.27 35.63C56.4268 35.9547 56.5637 36.2887 56.68 36.63 56.42 36.73 56.35 37.01 56.13 37.16 55.91 37.31 55.65 37.4 55.54 37.6 55.6 37.88 55.94 37.88 55.91 38.16 55.7564 38.219 55.5994 38.2691 55.44 38.31 55.0707 38.4153 54.6793 38.4153 54.31 38.31 54.09 38.24 53.86 38.21 53.73 38.49 53.73 38.49 53.64 38.55 53.6 38.57 53.47 38.6241 53.3951 38.7614 53.42 38.9 53.42 39.05 53.54 39.12 53.68 39.18 54.0576 39.3343 54.4898 39.2648 54.8 39L55.26 39.11C55.26 39.11 55.32 39.11 55.35 39.06L55.35 38.81C55.511 38.8874 55.6782 38.951 55.85 39 55.9653 39.0105 56.0724 39.064 56.15 39.15 56.3546 39.45 56.6656 39.6609 57.02 39.74 57.09 39.74 57.15 39.85 57.2 39.9L57.06 40.2 57.56 40.41C57.7026 40.495 57.8641 40.5431 58.03 40.55 58.1293 40.5535 58.223 40.5967 58.29 40.67 58.5157 40.8959 58.8124 41.0371 59.13 41.07 59.4036 41.1293 59.674 41.2028 59.94 41.29L60.11 41.29C60.1381 41.1798 60.0941 41.0639 60 41 59.7256 40.7342 59.42 40.5025 59.09 40.31 58.8743 40.1703 58.6876 39.9904 58.54 39.78 58.84 39.69 59.02 39.96 59.25 39.91 59.3 39.91 59.37 39.91 59.42 40 59.7828 40.264 60.1939 40.4543 60.63 40.56 60.6921 40.4955 60.7368 40.4164 60.76 40.33 60.7619 40.2375 60.7449 40.1457 60.71 40.06L61 40C61 39.83 60.92 39.73 60.85 39.63 60.78 39.53 60.58 39.36 60.56 39.13 60.5173 38.9628 60.3721 38.8419 60.2 38.83 60.0227 38.7853 59.8583 38.6997 59.72 38.58 59.6 38.48 59.54 38.3 59.43 38.18 59.32 38.06 59.18 37.99 59.05 37.88 59.0177 37.8441 58.9907 37.8037 58.97 37.76 58.97 37.76 58.97 37.7 58.97 37.66 58.97 37.62 59.24 37.84 59.37 37.66L59.14 37.31C59.38 37.42 59.49 37.17 59.68 37.17 59.9086 37.4566 60.2374 37.646 60.6 37.7 60.6 37.83 60.5 37.96 60.6 38.06 60.7 38.16 60.84 38.34 60.99 38.4 61.14 38.46 61.3 38.59 61.51 38.5L61.51 38 61.85 38C61.9585 37.9115 62.0529 37.8069 62.13 37.69 62.13 37.59 62.13 37.45 62.13 37.23 62.44 37.48 62.68 37.08 62.69 37.07 62.7 37.06 62.69 37.07 62.69 37.07 62.5497 36.8998 62.3238 36.8258 62.11 36.88 61.964 36.8992 61.816 36.8992 61.67 36.88L61.67 36.62 61.17 36.62C61.17 36.23 61.17 36.23 60.78 36.12 60.7168 36.1124 60.6593 36.08 60.62 36.03 60.5773 35.9575 60.4901 35.9243 60.41 35.95 60.2509 35.9901 60.0822 35.9571 59.95 35.86 59.7344 35.7523 59.5271 35.6286 59.33 35.49 59.2306 35.4305 59.1227 35.3867 59.01 35.36L58.7 35.28C58.6924 35.2136 58.6924 35.1465 58.7 35.08 58.75 35.02 58.85 34.98 58.87 34.91 58.89 34.84 58.87 34.74 58.87 34.62 59.134 34.7004 59.416 34.7004 59.68 34.62 59.5581 34.4836 59.3829 34.407 59.2 34.41 59.0224 34.4338 58.842 34.3949 58.69 34.3 58.88 34.07 59.16 34.12 59.4 34.03 59.3457 33.838 59.1933 33.6895 59 33.64 58.81 33.74 58.72 33.96 58.47 33.96L58.53 33.7 57.97 33.81C58.14 33.52 58.54 33.67 58.7 33.35 58.5098 33.1793 58.2434 33.1222 58 33.2 57.95 33.2 57.84 33.2 57.83 33.2 57.71 33 57.6 33.2 57.5 33.2L57.5 32.8 57.16 32.96 56.76 32.87C56.94 32.78 57.16 32.84 57.22 32.61ZM49.64 32.7 49.35 32.7C49.51 32.63 49.56 32.59 49.61 32.59 49.66 32.59 49.68 32.59 49.71 32.66 49.74 32.73 49.66 32.7 49.64 32.7ZM51.92 33.27C52.1 33.11 52.1 33.11 52.29 33.27ZM57.32 33.27C57.3929 33.2587 57.4671 33.2587 57.54 33.27L57.29 33.49C57.19 33.37 57.26 33.3 57.32 33.27ZM57.39 36.74C57.5837 36.9162 57.8169 37.0431 58.07 37.11 58.2075 37.1241 58.3205 37.2249 58.35 37.36 58.3 37.51 58.17 37.54 58.03 37.53 57.7981 37.5047 57.5646 37.5613 57.37 37.69L57.11 37.14ZM56.7 33C56.7241 32.9709 56.7509 32.9441 56.78 32.92 56.7845 32.9565 56.7845 32.9935 56.78 33.03Z" fill="#D9D9D9"/><path d="M39.81 34.16C39.8458 34.0497 39.9642 33.9892 40.0745 34.025 40.0983 34.0327 40.1204 34.0445 40.14 34.06 40.28 34.15 40.43 34.06 40.56 34.15 40.69 34.24 40.72 34.15 40.71 34.01 40.7 33.87 40.71 33.78 40.58 33.76 40.2671 33.6565 39.96 33.5363 39.66 33.4 39.2613 33.3121 38.9068 33.0853 38.66 32.76 38.7952 32.4917 38.7383 32.1665 38.52 31.96 38.4748 31.8926 38.4411 31.8183 38.42 31.74 38.33 31.46 38.23 31.18 38.14 30.89 38.089 30.8674 38.0417 30.8371 38 30.8 37.7579 30.6263 37.4679 30.532 37.17 30.53 36.86 30.53 36.76 30.59 36.81 30.88 36.8241 30.9624 36.8475 31.0429 36.88 31.12 36.97 31.42 37.06 31.72 37.16 32.01L37.1 32.09C36.89 32.27 36.77 32.26 36.68 32.04 36.5956 31.8948 36.538 31.7356 36.51 31.57 36.4776 31.3869 36.3635 31.2286 36.2 31.14 36.0661 31.0414 35.922 30.9575 35.77 30.89 35.69 30.89 35.59 30.81 35.51 30.89 35.74 31.09 35.74 31.09 35.74 31.31 35.5781 31.309 35.4167 31.3292 35.26 31.37 35.1161 31.4575 34.9477 31.4961 34.78 31.48L34.99 31.08C34.73 31 34.51 30.92 34.28 30.86 34.1728 30.8249 34.0572 30.8249 33.95 30.86 33.86 30.86 33.8 31.02 33.73 31.11 33.59 31.1523 33.4458 31.1791 33.3 31.19 33.3 31.13 33.3 31.09 33.3 31.07 33.3 31.05 33.55 30.72 33.39 30.53 33.23 30.34 33.05 30.43 32.87 30.48L31.97 30.77C31.6317 30.8961 31.3172 31.0787 31.04 31.31L31.14 31.56C30.96 31.7 30.7 31.77 30.7 32.1L31.3 32.22 31.3 32.43 32.56 32.27C32.4488 32.4079 32.2934 32.5033 32.12 32.54L31.49 32.68C31.3454 32.6866 31.2139 32.7656 31.14 32.89 31.3235 33.1252 31.6126 33.2529 31.91 33.23 32.009 33.2101 32.111 33.2101 32.21 33.23 32.5079 33.2802 32.8121 33.2802 33.11 33.23 33.339 33.2 33.571 33.2 33.8 33.23 34.0325 33.2652 34.2605 33.3256 34.48 33.41 34.56 33.41 34.67 33.41 34.66 33.59 34.4561 33.7133 34.2124 33.7528 33.98 33.7 33.4216 33.5949 32.8484 33.5949 32.29 33.7 32.0771 33.7028 31.8693 33.7652 31.69 33.88L31.69 34C31.69 34 31.69 34.07 31.69 34.09 31.9515 34.447 32.3788 34.6436 32.82 34.61L33.27 34.61C33.3985 34.627 33.5255 34.6538 33.65 34.69 33.65 34.78 33.65 34.84 33.65 34.91 33.72 35.29 33.85 35.39 34.22 35.36L34.97 35.3C35.4939 35.3303 36.0169 35.227 36.49 35 36.5634 34.9594 36.6461 34.9387 36.73 34.94 37.0029 34.9664 37.2644 34.8237 37.39 34.58 37.39 34.52 37.52 34.49 37.6 34.43 37.7088 34.6232 37.9086 34.7476 38.13 34.76 38.2295 34.7623 38.3237 34.8058 38.39 34.88 38.4586 34.975 38.5737 35.0249 38.69 35.01 38.7929 34.9984 38.8966 34.9951 39 35 39.3669 35.0616 39.7438 35.0092 40.08 34.85 40.08 34.85 40.08 34.8 40.14 34.77L40 34.44 39.59 34.53C39.59 34.43 39.53 34.35 39.5 34.28 39.47 34.21 39.74 34.34 39.81 34.16ZM39.42 34.23 39.42 34.23 39.36 34.23Z" fill="#D9D9D9"/><path d="M44 22.67 43.51 22.6C43.4 22.6 43.28 22.53 43.18 22.6 43.2455 22.9273 43.5619 23.1412 43.89 23.08L44 23.08C44 23.23 43.71 23.15 43.7 23.34 43.9 23.46 44.09 23.56 44.3 23.39 44.3433 23.365 44.3967 23.365 44.44 23.39 44.6 23.54 44.73 23.39 44.89 23.39 45.0725 23.3647 45.2575 23.3647 45.44 23.39 45.5718 23.3953 45.7027 23.4154 45.83 23.45 45.83 23.45 45.83 23.45 45.83 23.5L45.67 23.5 45.44 23.5 45.79 23.64C45.6011 23.6678 45.4108 23.6845 45.22 23.69 44.9617 23.6654 44.7048 23.7486 44.51 23.92L44.93 24.29C45.05 24.29 45.18 24.29 45.31 24.29 45.44 24.29 45.55 24.35 45.78 24.41L45.3 24.52C45.3 24.58 45.3 24.62 45.36 24.63 45.6386 24.7823 45.9526 24.8582 46.27 24.85 46.3527 24.8785 46.4436 24.8396 46.48 24.76 46.56 24.6 46.67 24.7 46.78 24.76 46.89 24.82 46.78 24.76 46.84 24.71L46.84 24.62 46.84 24.42 47.27 24.77C47.4 24.87 47.53 24.82 47.57 24.65 47.5754 24.5734 47.5754 24.4966 47.57 24.42L47.85 24.42C47.91 24.23 47.64 24.03 47.85 23.87 48 23.93 47.85 24.18 48.1 24.2 48.2939 24.0286 48.505 23.8778 48.73 23.75 48.9979 23.7083 49.2537 23.6093 49.48 23.46 49.39 23.38 49.33 23.3 49.26 23.23 49.19 23.16 48.95 23.3 48.86 23.12L48.33 23.12C48.3341 23.0835 48.3341 23.0466 48.33 23.01 48.41 22.64 48.33 22.59 48.01 22.52 48.01 22.52 47.96 22.52 47.94 22.46 47.92 22.4 47.94 22.46 47.94 22.46 47.94 22.46 47.94 22.41 47.94 22.38 47.94 22.35 47.94 22.15 47.81 22.14 47.7203 22.1302 47.6297 22.1302 47.54 22.14L47.54 22.43C47.18 22.49 47.17 22.2 47.09 22.02 47.0336 22.0129 46.9764 22.0129 46.92 22.02 46.5845 22.0316 46.2616 21.8921 46.04 21.64L45.65 21.25C45.6098 21.1965 45.5587 21.1522 45.5 21.12 45.1914 20.9639 44.8408 20.9113 44.5 20.97 44.62 21.06 44.82 20.97 44.86 21.21 44.53 21.21 44.24 21.41 43.86 21.34L43.86 21.34C43.827 21.3742 43.797 21.4109 43.77 21.45 43.7557 21.4783 43.7557 21.5117 43.77 21.54 43.8733 21.5907 43.9734 21.6475 44.07 21.71 44.07 21.71 44.15 21.8 44.23 21.89L43.48 21.89C43.48 21.89 43.48 21.89 43.41 21.95L43.41 22.14 43.27 22.14 42.98 22.2C43.1655 22.2684 43.3561 22.3219 43.55 22.36 43.7332 22.3703 43.9168 22.3703 44.1 22.36 44.1306 22.474 44.0914 22.5953 44 22.67ZM44.05 23.14 44.28 23.05C44.24 23.19 44.15 23.17 44.06 23.14Z" fill="#D9D9D9"/><path d="M27.47 32C27.7788 32.0867 28.041 32.2914 28.2 32.57 28.33 32.8 28.46 32.81 28.7 32.68 28.9095 32.5121 29.1716 32.4236 29.44 32.43 29.55 32.43 29.68 32.34 29.75 32.31L30.01 31.62C30.2413 31.6144 30.4516 31.4844 30.56 31.28 30.62 31.1823 30.7118 31.1081 30.82 31.07 31.2962 30.8274 31.7912 30.6235 32.3 30.46 32.4 30.46 32.5 30.36 32.7 30.27L31.79 29.66C31.5017 29.431 31.0997 29.4109 30.79 29.61 30.7478 29.6238 30.7022 29.6238 30.66 29.61 30.28 29.42 29.86 29.39 29.49 29.2 29.4119 29.1754 29.3281 29.1754 29.25 29.2 28.75 29.25 28.25 29.32 27.76 29.38 27.76 29.38 27.76 29.38 27.68 29.44 27.59 29.73 27.89 29.81 27.99 30 27.85 30.32 27.48 30.51 27.54 30.91 27.33 31.04 27.36 31.33 27.16 31.48 27.0324 31.5503 26.9767 31.7044 27.03 31.84 27.16 31.88 27.31 32 27.47 32Z" fill="#D9D9D9"/><path d="M45.49 28.31 45.7 28.76C45.7576 28.9094 45.9254 28.9839 46.0749 28.9263 46.0869 28.9217 46.0987 28.9162 46.11 28.91 46.1731 28.8955 46.2337 28.8719 46.29 28.84 46.75 29.28 47.19 29.03 47.62 28.84L47.75 29.18 47.97 29.18 49.97 29.18C50.2188 29.2038 50.4581 29.0782 50.58 28.86 50.69 28.97 50.77 29.1 50.88 29.13 51.0534 29.1894 51.2378 29.2098 51.42 29.19 51.693 29.1576 51.9635 29.1075 52.23 29.04L52.23 28.77 52.23 28.77C52.23 28.68 52.23 28.62 52.29 28.56 52.35 28.5 52.56 28.47 52.54 28.27 52.3668 28.1004 52.1412 27.9946 51.9 27.97 51.8464 27.967 51.7946 27.9498 51.75 27.92 51.4484 27.7399 51.0835 27.6998 50.75 27.81 50.7004 27.8192 50.6496 27.8192 50.6 27.81 50.169 27.8022 49.7398 27.8664 49.33 28 49.28 28 49.21 28 49.19 28 48.98 28.27 48.74 28.13 48.51 28 48.4089 27.9697 48.3011 27.9697 48.2 28 48.087 28.0361 47.9686 28.053 47.85 28.05 47.7464 28.0288 47.6456 27.9952 47.55 27.95 47.38 28.11 47.28 28.12 47.24 27.95 47.2 27.78 46.95 27.58 46.69 27.55L46.36 27.55 46.18 27.26 47 27.26C47 27.21 46.95 27.17 46.92 27.17 46.7 27.08 46.42 27.11 46.3 26.83 46.1717 26.8003 46.0413 26.7802 45.91 26.77 45.64 26.77 45.38 26.77 45.12 26.83 45.0496 26.8527 44.9848 26.8902 44.93 26.94 45.04 27.18 45.28 27.31 45.43 27.52 45.58 27.73 45.68 27.84 45.43 28.21 45.49 28.24 45.5 28.28 45.49 28.31Z" fill="#D9D9D9"/><path d="M32.17 27.34C32.09 27.34 32.02 27.43 32.1 27.56L32.59 27.61C32.32 27.78 32.01 27.71 31.76 27.87 31.76 27.87 31.83 27.95 31.85 27.95L32.39 27.95C32.3955 28.0327 32.333 28.1041 32.2503 28.1097 32.2469 28.1099 32.2434 28.11 32.24 28.11L31.79 28.11C31.67 28.11 31.56 28.16 31.55 28.34 31.6633 28.3922 31.7854 28.4227 31.91 28.43 32.0581 28.4003 32.2113 28.4451 32.32 28.55 32.3867 28.6054 32.4833 28.6054 32.55 28.55 32.6167 28.4946 32.7133 28.4946 32.78 28.55 32.98 28.69 33.11 28.55 33.25 28.44 33.39 28.33 33.41 28.29 33.52 28.17L33.62 28.57C33.8369 28.4879 34.0682 28.4504 34.3 28.46 34.54 28.51 34.76 28.38 35 28.46 34.8852 28.6365 34.6783 28.7301 34.47 28.7 34.0759 28.7204 33.6922 28.8335 33.35 29.03 33.3755 29.0704 33.4096 29.1045 33.45 29.13 33.7528 29.3063 34.1161 29.3463 34.45 29.24 34.73 29.17 34.99 29.07 35.26 28.98 35.47 28.7 35.84 28.88 36.09 28.7 36.1289 28.6692 36.1729 28.6455 36.22 28.63 36.27 28.63 36.34 28.63 36.37 28.63 36.63 28.79 36.92 28.63 37.19 28.7 37.5705 28.7954 37.9574 28.5686 38.06 28.19 38.06 28.11 38.14 28.05 38.17 27.97 38.2072 27.8549 38.1718 27.7288 38.08 27.65 37.9567 27.5656 37.8093 27.5235 37.66 27.53 37.48 27.53 37.48 27.69 37.37 27.75 37.1303 27.7075 36.9001 27.6229 36.69 27.5 36.6194 27.4867 36.5731 27.4187 36.5864 27.3481 36.5889 27.3348 36.5935 27.3219 36.6 27.31 36.6 27.31 36.6 27.19 36.6 27.17 36.41 27.05 36.45 26.81 36.34 26.66 36.05 26.66 36.05 26.66 35.52 27.17L36.02 27.39 35.89 27.73 36.1 27.81C36.2 27.81 36.29 27.9 36.26 28.02 36.23 28.14 36.15 28.13 36.06 28.13L35 28C34.85 27.62 34.45 27.53 34.19 27.27 34.19 27.22 34.04 27.22 33.96 27.21L33.71 27.21C33.5924 27.231 33.4728 27.1847 33.4 27.09 33.1771 26.8595 32.818 26.8296 32.56 27.02 32.5 27.07 32.48 27.17 32.43 27.21 32.3473 27.2608 32.2603 27.3043 32.17 27.34ZM32.6 27.96 32.41 27.96 32.6 27.96Z" fill="#D9D9D9"/><path d="M41.63 32.33C41.7418 32.501 41.9711 32.549 42.1422 32.4372 42.1591 32.4261 42.1751 32.4137 42.19 32.4 42.2446 32.3414 42.2886 32.2737 42.32 32.2 42.628 32.248 42.938 32.1256 43.13 31.88 43.19 31.73 43.13 31.56 43.22 31.4 43.31 31.24 43.22 31.17 43.09 31.11 42.96 31.05 42.97 31.11 42.92 31.11 42.8238 30.9976 42.7088 30.9028 42.58 30.83 42.4477 30.7876 42.3086 30.7706 42.17 30.78 42.2832 30.5993 42.4568 30.4646 42.66 30.4 42.66 30.29 42.66 30.17 42.77 30.14 42.88 30.11 42.85 30.05 42.84 30.03 42.83 30.01 42.77 29.9 42.72 29.9 42.5535 29.8899 42.3865 29.8899 42.22 29.9L42.22 29.9 42.22 29.9 42.22 29.9C42.0678 30.0205 41.8672 30.0614 41.68 30.01 41.4611 29.9545 41.2359 29.9276 41.01 29.93 40.78 29.93 40.75 29.93 40.68 30.23L40.77 30.23 40.68 30.23C40.6414 30.1831 40.5721 30.1763 40.5252 30.2148 40.5196 30.2194 40.5146 30.2245 40.51 30.23 40.51 30.31 40.51 30.35 40.59 30.39L40.68 30.39C40.93 30.39 41.05 30.55 41.16 30.75 41.1319 30.9007 41.0115 31.017 40.86 31.04 40.6981 31.091 40.5213 31.0487 40.4 30.93 40.3142 30.8488 40.2164 30.7814 40.11 30.73 39.9968 30.6876 39.8701 30.74 39.82 30.85 39.7613 30.9233 39.7731 31.0303 39.8463 31.089 39.8567 31.0973 39.868 31.1043 39.88 31.11 40.12 31.22 40.27 31.5 40.61 31.49 40.75 31.49 40.91 31.62 41.04 31.72 41.273 31.8848 41.4731 32.0917 41.63 32.33Z" fill="#D9D9D9"/><path d="M66.92 52.23C67.0408 52.1174 67.1421 51.9856 67.22 51.84L66.96 51.84C66.83 51.64 66.96 51.48 67.04 51.31 66.9867 51.2633 66.9258 51.2261 66.86 51.2 66.7279 51.1749 66.5921 51.1749 66.46 51.2 66.2212 51.2761 65.9599 51.2146 65.78 51.04L65.78 50.72 65.32 50.88C65.26 50.68 65.4 50.59 65.48 50.46 65.56 50.33 65.6 50.26 65.65 50.16 65.7 50.06 65.84 50.01 65.77 49.91 65.7 49.81 65.86 49.73 65.77 49.63 65.578 49.6174 65.393 49.7042 65.28 49.86 65.0459 50.1698 64.848 50.5053 64.69 50.86 64.63 51.04 64.6 51.28 64.47 51.39 64.3221 51.5189 64.235 51.7039 64.23 51.9 64.23 51.9 64.15 52 64.1 52.05 64.0384 52.1015 63.9815 52.1584 63.93 52.22 63.9111 52.2648 63.9111 52.3152 63.93 52.36 63.9561 52.4016 64.001 52.4277 64.05 52.43 64.23 52.43 64.41 52.43 64.59 52.43 64.77 52.43 64.96 52.48 65.14 52.48 65.32 52.48 65.53 52.39 65.68 52.48 65.83 52.57 66.02 52.48 66.18 52.48 66.34 52.48 66.23 52.48 66.25 52.54L66.25 52.65 66.25 52.65C66.3669 52.6267 66.4786 52.5827 66.58 52.52 66.6846 52.4135 66.7983 52.3164 66.92 52.23Z" fill="#D9D9D9"/><path d="M51.76 39.53 51.36 39.53C51.4592 39.3142 51.3648 39.0589 51.149 38.9597 51.1205 38.9466 51.0907 38.9366 51.06 38.93 50.9188 38.8771 50.7817 38.8136 50.65 38.74 50.52 38.68 50.43 38.55 50.26 38.52 50.1209 38.4773 49.9893 38.4132 49.87 38.33L49.62 38.43C49.56 38.28 49.52 38.16 49.47 38.04 49.4087 37.9416 49.2791 37.9115 49.1807 37.9729 49.1771 37.9751 49.1735 37.9775 49.17 37.98 49.098 38.048 49.0461 38.1345 49.02 38.23 48.96 38.64 48.91 39.05 48.86 39.5 48.77 39.63 48.49 39.6 48.46 39.88L49.21 39.81 49.34 40.34C49.5 40.28 49.64 40.27 49.7 40.2 49.89 39.96 50.21 39.88 50.35 39.6 50.49 39.32 50.52 39.39 50.7 39.49 50.7928 39.5273 50.883 39.5707 50.97 39.62 51.04 39.68 51.09 39.78 51.17 39.82 51.25 39.86 51.58 39.94 51.81 40.01L52.08 39.78C52.0545 39.6262 51.9154 39.5175 51.76 39.53Z" fill="#D9D9D9"/><path d="M29.39 27.51 29.66 27.29C29.7337 27.371 29.8006 27.458 29.86 27.55 29.9233 27.6322 30.0322 27.6645 30.13 27.63 30.2342 27.6053 30.3031 27.5062 30.29 27.4 30.29 27.31 30.29 27.2 30.4 27.16L30.51 27.26 30.63 27.32C30.6772 27.2664 30.7206 27.2096 30.76 27.15 30.7641 27.1068 30.7641 27.0632 30.76 27.02 30.8549 26.8662 30.973 26.7279 31.11 26.61 31.1528 26.6005 31.1972 26.6005 31.24 26.61L31.24 27C31.54 27.15 31.6 27.17 31.67 27 31.7362 26.8665 31.8629 26.7734 32.01 26.75 32.094 26.7273 32.1747 26.6936 32.25 26.65L32.17 26.35 32.17 26.35C32.17 26.11 32.17 26.11 32.42 25.89 32.3317 25.7694 32.1981 25.69 32.05 25.67 31.99 25.67 31.84 25.67 31.84 25.74 31.84 25.93 31.68 25.93 31.55 25.93 31.42 25.93 31.28 25.93 31.15 25.93 30.9387 25.9215 30.7279 25.9555 30.53 26.03 30.13 26.23 29.84 26.59 29.42 26.76 29.2878 26.9363 29.0803 27.04 28.86 27.04 28.7705 27.0611 28.6834 27.0912 28.6 27.13L28.71 27.55C28.9151 27.4217 29.1713 27.4066 29.39 27.51Z" fill="#D9D9D9"/><path d="M41.54 26.89C41.3476 26.745 41.0824 26.745 40.89 26.89 40.89 26.89 40.89 26.95 40.89 27L41.21 27.1 41.21 27.46C40.996 27.4463 40.797 27.345 40.66 27.18 40.5619 27.0266 40.3761 26.954 40.2 27 40.1911 27.0361 40.1911 27.0739 40.2 27.11 40.3404 27.2688 40.3791 27.4933 40.3 27.69L40.41 27.69 40.41 27.69 40.31 27.69C40.24 27.69 40.17 27.64 40.12 27.69 40.0078 27.7548 39.9226 27.8577 39.88 27.98L40.82 27.98 41.21 27.93C41.21 27.93 41.21 27.93 41.31 27.99L41.06 28.25 41.14 28.61C41.5116 28.6606 41.8884 28.6606 42.26 28.61 42.41 28.4 42.26 28.09 42.6 28.02 42.5953 27.9902 42.5953 27.9598 42.6 27.93 42.6 27.87 42.54 27.8 42.6 27.75 42.6814 27.4965 42.6408 27.2195 42.49 27 42.2712 26.8687 41.9928 26.8929 41.8 27.06 41.65 27 41.59 26.93 41.54 26.89Z" fill="#D9D9D9"/><path d="M38.92 24C38.92 24 39.01 24 39.05 24.07L39.34 24.34C39.34 24.4 39.34 24.48 39.28 24.52 39.2371 24.5682 39.1744 24.594 39.11 24.59L38.56 24.59C38.62 24.69 38.64 24.76 38.68 24.79 38.8404 24.8837 39.0328 24.9055 39.21 24.85 39.3595 24.7794 39.5266 24.755 39.69 24.78 39.9383 24.8677 40.1973 24.9215 40.46 24.94 40.5965 24.9475 40.7202 25.0225 40.79 25.14 40.87 25.27 40.96 25.4 41.13 25.41 41.293 25.425 41.457 25.425 41.62 25.41 41.7131 25.3752 41.7605 25.2716 41.7257 25.1784 41.7177 25.1568 41.7055 25.137 41.69 25.12 41.62 25.05 41.53 25 41.46 24.92 41.4025 24.8653 41.37 24.7894 41.37 24.71 41.3759 24.502 41.2175 24.3259 41.01 24.31 40.81 24.31 40.63 24.31 40.54 24.08 40.45 23.85 40.31 23.94 40.18 23.98 40.0433 24.0163 39.9095 24.0631 39.78 24.12 39.71 23.79 39.46 23.68 39.16 23.62 38.8636 23.5898 38.5642 23.6205 38.28 23.71 38.28 23.71 38.22 23.81 38.16 23.9 38.46 23.83 38.64 24.1 38.92 24Z" fill="#D9D9D9"/><path d="M54.89 69.47C54.78 69.47 54.69 69.3 54.58 69.26 54.1481 69.0857 53.7302 68.8784 53.33 68.64 53.1659 68.5581 52.9907 68.5009 52.81 68.47 52.63 68.41 52.48 68.24 52.29 68.19 51.6315 67.9995 50.9287 68.0311 50.29 68.28 50.1976 68.3177 50.1129 68.3719 50.04 68.44 49.9627 68.5109 49.9575 68.6311 50.0285 68.7085 50.0321 68.7125 50.036 68.7163 50.04 68.72 50.2626 68.622 50.4795 68.5118 50.69 68.39 50.8471 68.2987 51.0294 68.2601 51.21 68.28 51.39 68.28 51.42 68.4 51.44 68.54 51.6897 68.5646 51.9351 68.6218 52.17 68.71 52.4841 68.8555 52.824 68.9371 53.17 68.95 53.2306 69.2759 53.53 69.5015 53.86 69.47L53.86 69.47C53.9336 69.508 53.9624 69.5985 53.9244 69.6721 53.923 69.6748 53.9215 69.6774 53.92 69.68 53.8688 69.7511 53.8119 69.818 53.75 69.88 54.19 69.88 54.55 69.88 54.92 69.88 55.1225 69.8917 55.3231 69.8354 55.49 69.72 55.4063 69.6453 55.3159 69.5783 55.22 69.52 55.13 69.49 55 69.51 54.89 69.47Z" fill="#D9D9D9"/><path d="M58.56 70.5C58.3521 70.4384 58.1584 70.3365 57.99 70.2 57.8393 70.1057 57.6736 70.0381 57.5 70 57.2848 69.9801 57.0678 70.0004 56.86 70.06 56.66 70.06 56.46 69.9 56.22 69.99 56.29 70.11 56.37 70.2 56.43 70.31 56.4843 70.4337 56.531 70.5606 56.57 70.69 56.25 70.93 55.92 70.69 55.57 70.69 55.78 70.87 55.78 70.87 55.84 70.87L56.64 70.87C56.7725 70.8639 56.902 70.9106 57 71 57.05 71.06 57.09 71.14 57.21 71.11 57.2451 71.0816 57.2754 71.0479 57.3 71.01 57.3641 70.8643 57.5309 70.7941 57.68 70.85 57.7418 70.8699 57.8082 70.8699 57.87 70.85 58.0747 70.7754 58.2951 70.7548 58.51 70.79 58.57 70.79 58.65 70.79 58.7 70.79 58.75 70.79 58.79 70.67 58.77 70.64 58.718 70.5708 58.6439 70.5214 58.56 70.5Z" fill="#D9D9D9"/><path d="M51.94 30.23C51.94 30.28 51.94 30.33 51.94 30.41 52.24 30.58 52.24 30.58 52.3 30.69 52.5 31.05 52.59 31.1 52.96 31 53.2434 30.9052 53.5464 30.8845 53.84 30.94 54.0138 30.9849 54.1962 30.9849 54.37 30.94 54.37 30.94 54.37 30.94 54.37 30.88 54.37 30.82 54.37 30.81 54.37 30.79 54.1364 30.3988 53.7248 30.148 53.27 30.12 52.8904 30.1469 52.509 30.1132 52.14 30.02 52 30 52 30.07 51.94 30.23Z" fill="#D9D9D9"/><path d="M43.74 28C43.5382 28.1409 43.3707 28.3255 43.25 28.54 43.555 28.7355 43.8943 28.8712 44.25 28.94 44.4345 28.9896 44.6315 28.9568 44.79 28.85 44.79 28.74 44.79 28.62 44.79 28.51 44.689 28.1026 44.2769 27.8542 43.8695 27.9552 43.8251 27.9662 43.7817 27.9812 43.74 28Z" fill="#D9D9D9"/><path d="M42.7 24.89C42.78 24.89 42.87 24.89 42.88 25.03L42.71 25.13 42.96 25.34C43.29 25.24 43.64 25.34 43.96 25.1 43.9341 25.025 43.9141 24.9481 43.9 24.87 43.9 24.62 43.9 24.6 43.69 24.59 43.5432 24.5814 43.4014 24.533 43.28 24.45 43.0068 24.2922 42.6954 24.2127 42.38 24.22 42.38 24.22 42.3 24.27 42.26 24.3 42.23 24.63 42.34 24.85 42.7 24.89Z" fill="#D9D9D9"/><path d="M44.94 27 44.94 27 44.94 27 44.94 27Z" fill="#D9D9D9"/><path d="M44.92 26.63C44.8814 26.5734 44.8251 26.5312 44.76 26.51L43.63 26.31C43.4616 26.2702 43.2855 26.3328 43.18 26.47 43.18 26.75 43.44 26.86 43.61 26.98 43.877 27.1214 44.1788 27.1839 44.48 27.16 44.6557 27.1561 44.822 27.0802 44.94 26.95 44.9933 26.8479 44.9856 26.7247 44.92 26.63Z" fill="#D9D9D9"/><path d="M34.81 25.87C35.07 25.77 35.41 25.87 35.57 25.58 35.51 25.41 35.28 25.58 35.26 25.35 35.24 25.12 35.62 25.35 35.71 25.14 35.71 25.14 35.71 25.14 35.71 25.14 35.135 25.0942 34.5566 25.1656 34.01 25.35 34.01 25.35 34.01 25.4 33.93 25.45L34.02 25.74C34.27 25.81 34.5 26 34.81 25.87Z" fill="#D9D9D9"/><path d="M54.42 35.6C54.1346 35.6622 53.9333 35.918 53.94 36.21 53.9324 36.3976 54.0784 36.5559 54.266 36.5635 54.2874 36.5643 54.3088 36.5632 54.33 36.56 54.4487 36.5643 54.5672 36.5473 54.68 36.51 55.07 36.37 55.13 36.27 55.08 35.94 55.08 35.85 55.08 35.77 55.08 35.68 54.8774 35.5729 54.6423 35.5444 54.42 35.6Z" fill="#D9D9D9"/><path d="M66.9 34.33 66.99 34.59C67.1 34.59 67.22 34.59 67.33 34.59 67.4746 34.5585 67.6154 34.5115 67.75 34.45 67.8241 34.4173 67.8818 34.3559 67.91 34.28 67.91 34.19 67.85 34.14 67.77 34.1 67.6484 34.0527 67.534 33.9888 67.43 33.91 67.2734 33.7871 67.0871 33.7078 66.89 33.68 66.773 33.61 66.627 33.61 66.51 33.68 66.41 33.77 66.51 33.87 66.51 33.96 66.51 34.05 66.51 34.14 66.45 34.25Z" fill="#D9D9D9"/><path d="M34.79 24.77C34.79 24.77 34.79 24.77 34.84 24.77 35.0124 24.7149 35.1976 24.7149 35.37 24.77 35.5494 24.79 35.7306 24.79 35.91 24.77 35.91 24.77 35.98 24.72 36 24.68 36.02 24.64 36 24.6 36 24.59 35.7963 24.3577 35.4748 24.2675 35.18 24.36 34.86 24.49 34.52 24.54 34.18 24.64L34.01 24.72 34.01 24.82C34.2583 24.7218 34.5312 24.7043 34.79 24.77Z" fill="#D9D9D9"/><path d="M38.6 30.58C38.75 30.34 38.71 30.17 38.44 30.07 38.3674 30.0263 38.2847 30.0022 38.2 30L37.66 30.08C37.57 30.08 37.52 30.16 37.53 30.2L38.17 30.87C38.3448 30.831 38.4984 30.7274 38.6 30.58Z" fill="#D9D9D9"/><path d="M38.17 30.89 38.17 30.89Z" fill="#D9D9D9"/><path d="M11.72 44.73C11.57 44.73 11.37 44.73 11.3 44.86 11.23 44.99 10.94 44.86 10.86 45.05L10.86 45.15C10.92 45.26 10.97 45.37 11.12 45.41 11.2506 45.4426 11.3889 45.4089 11.49 45.32L12 45C12 44.73 11.85 44.72 11.72 44.73Z" fill="#D9D9D9"/><path d="M21.75 45C21.723 44.8581 21.7063 44.7144 21.7 44.57 21.44 44.57 21.19 44.29 20.97 44.64L21.4 45.18 21.4 45.18C21.5026 45.2321 21.5813 45.3216 21.62 45.43 21.6834 45.5782 21.7569 45.7219 21.84 45.86 21.9148 45.7123 21.9148 45.5377 21.84 45.39 21.8002 45.2624 21.7702 45.1321 21.75 45Z" fill="#D9D9D9"/><path d="M47.74 21.45 47.54 21.45C47.48 21.45 47.41 21.45 47.42 21.59 47.6133 21.7045 47.8275 21.7793 48.05 21.81 48.1484 21.8354 48.2516 21.8354 48.35 21.81 48.5475 21.716 48.7216 21.5794 48.86 21.41Z" fill="#D9D9D9"/><path d="M44.75 25.75C44.81 25.75 44.85 25.64 44.96 25.5 44.4853 25.4394 44.0047 25.4394 43.53 25.5 43.53 25.5 43.46 25.56 43.42 25.6 43.38 25.64 43.49 25.71 43.53 25.72 43.9325 25.795 44.3443 25.8051 44.75 25.75Z" fill="#D9D9D9"/><path d="M50.48 40.53 50.32 40.77C50.22 40.94 50.32 41.06 50.48 41.07 50.64 41.08 50.59 41.07 50.62 41.07 50.65 41.07 50.96 40.87 51.12 40.76 51.28 40.65 51.25 40.66 51.2 40.53 51 40.43 50.74 40.57 50.48 40.53Z" fill="#D9D9D9"/><path d="M39.62 27.73C39.62 27.73 39.78 27.73 39.89 27.67L39.71 27.21C39.4291 27.1449 39.1342 27.184 38.88 27.32 39.11 27.54 39.43 27.5 39.62 27.73Z" fill="#D9D9D9"/><path d="M23.33 47.06C23.2461 46.6253 22.99 46.243 22.62 46 22.89 46.75 22.89 46.75 23.33 47.06Z" fill="#D9D9D9"/><path d="M67.26 52.38C67.0218 52.406 66.8434 52.6105 66.85 52.85 66.95 52.85 67.04 52.85 67.09 52.93 67.1531 53.0204 67.2754 53.0466 67.37 52.99L67.45 52.78C67.4793 52.7087 67.5027 52.6351 67.52 52.56 67.38 52.53 67.26 52.53 67.26 52.38Z" fill="#D9D9D9"/><path d="M61.23 50.85C61.79 51.32 62.07 51.42 62.45 51.28 62.0981 51.0131 61.6715 50.8627 61.23 50.85Z" fill="#D9D9D9"/><path d="M23.44 47.77 23.17 47.71 22.89 47.71C22.8542 47.915 22.9351 48.123 23.1 48.25 23.23 48.38 23.37 48.31 23.51 48.25 23.34 48.12 23.52 47.94 23.44 47.77Z" fill="#D9D9D9"/><path d="M23.51 48.25 23.51 48.25 23.29 48.54 23.48 48.63C23.5087 48.5803 23.529 48.5263 23.54 48.47 23.5449 48.3967 23.5449 48.3233 23.54 48.25Z" fill="#D9D9D9"/><path d="M38.74 26C38.48 25.86 38.38 25.55 38.01 25.48 38.0437 25.7129 38.1654 25.9241 38.35 26.07 38.48 26.2 38.55 26.18 38.74 26Z" fill="#D9D9D9"/><path d="M46.85 25.78C46.73 25.71 46.59 25.67 46.46 25.61L46.26 25.67C46.2 25.67 46.17 25.85 46.26 25.89 46.4189 26.0364 46.6443 26.0861 46.85 26.02 46.9163 25.9802 46.9377 25.8942 46.8979 25.8279 46.8861 25.8082 46.8696 25.7918 46.85 25.78Z" fill="#D9D9D9"/><path d="M30.57 27.94C30.71 27.94 30.81 28.03 30.9 28.01 31.1405 27.9163 31.3148 27.7041 31.36 27.45 31.0446 27.5086 30.7626 27.6834 30.57 27.94Z" fill="#D9D9D9"/><path d="M22.18 45.64C22.4 45.84 22.67 45.75 22.9 45.81L23 46 22.91 45.53C22.65 45.34 22.43 45.46 22.18 45.64Z" fill="#D9D9D9"/><path d="M22.92 45.51 22.92 45.51Z" fill="#D9D9D9"/><path d="M41.81 22.64C41.6177 22.5226 41.3701 22.5515 41.21 22.71L41.87 23.01C41.9575 22.9032 41.942 22.7457 41.8352 22.6582 41.8272 22.6516 41.8188 22.6455 41.81 22.64Z" fill="#D9D9D9"/><path d="M53.42 70.82C53.68 71.19 53.98 71.08 54.3 71.02 54 70.77 54 70.77 53.42 70.82Z" fill="#D9D9D9"/><path d="M52.51 41.55C52.6189 41.4529 52.6838 41.3158 52.69 41.17 52.6889 41.0816 52.6164 41.0109 52.528 41.012 52.5117 41.0122 52.4955 41.0149 52.48 41.02 52.4057 41.0508 52.3453 41.1077 52.31 41.18 52.25 41.34 52.32 41.46 52.51 41.55Z" fill="#D9D9D9"/><path d="M59.65 70.8C59.65 70.8 59.57 70.86 59.58 70.89 59.59 70.92 59.58 70.99 59.66 70.99 59.8029 71.0049 59.9471 71.0049 60.09 70.99 60.16 70.99 60.21 70.91 60.27 70.87L60.27 70.76Z" fill="#D9D9D9"/><path d="M22 44.51C21.9829 44.7693 22.0457 45.0276 22.18 45.25 22.24 45.15 22.34 45.06 22.33 45 22.32 44.94 22.22 44.62 22 44.51Z" fill="#D9D9D9"/><path d="M38.65 28.41C38.65 28.48 38.78 28.53 38.84 28.57L39.02 28.57C39.0951 28.5514 39.1409 28.4755 39.1223 28.4005 39.1156 28.3733 39.1008 28.3487 39.08 28.33 39.0345 28.2855 38.9799 28.2514 38.92 28.23 38.79 28.17 38.61 28.3 38.65 28.41Z" fill="#D9D9D9"/><path d="M38.78 26.88C38.78 26.88 38.78 26.95 38.78 26.97 38.9277 27.1225 39.1633 27.1477 39.34 27.03 39.2321 26.8673 39.0447 26.7755 38.85 26.79 38.8203 26.8145 38.7964 26.8452 38.78 26.88Z" fill="#D9D9D9"/><path d="M33.64 25.37C33.5053 25.2899 33.3649 25.2197 33.22 25.16 33.1425 25.1307 33.0559 25.1697 33.0266 25.2472 33.0238 25.2546 33.0216 25.2622 33.02 25.27 33.1654 25.4659 33.4404 25.5102 33.64 25.37Z" fill="#D9D9D9"/><path d="M61.49 53.35 61.98 53.49C61.98 53.49 62.04 53.49 62.07 53.49L62.18 53.3 61.84 53.36C61.74 53.35 61.64 53.22 61.49 53.35Z" fill="#D9D9D9"/><path d="M54.71 23.75C54.8866 23.8581 55.0992 23.8905 55.3 23.84 55.09 23.63 55.09 23.63 54.71 23.75Z" fill="#D9D9D9"/><path d="M55.94 36C55.77 35.89 55.59 35.76 55.34 35.93 55.507 36.0735 55.7444 36.1012 55.94 36Z" fill="#D9D9D9"/><path d="M51.41 48.49C51.5659 48.5992 51.7498 48.6617 51.94 48.67 51.71 48.39 51.71 48.39 51.41 48.49Z" fill="#D9D9D9"/><path d="M42.38 29.69C42.07 29.69 42.07 29.69 41.89 29.85L42.23 29.85C42.29 29.83 42.41 29.81 42.38 29.69Z" fill="#D9D9D9"/><path d="M40.5 25.39 40.09 25.31C40.02 25.31 39.97 25.31 40 25.45 40.1656 25.5194 40.3555 25.4966 40.5 25.39Z" fill="#D9D9D9"/><path d="M33.2 26.62 33.57 26.62C33.29 26.47 33.22 26.48 33.2 26.62Z" fill="#D9D9D9"/><path d="M52.83 35C53.06 35 53.15 34.82 53.26 34.61 52.9 34.8 52.9 34.8 52.83 35Z" fill="#D9D9D9"/><path d="M53.31 40.07C53.37 40.21 53.45 40.29 53.6 40.25 53.6237 40.2135 53.6237 40.1665 53.6 40.13 53.56 40 53.45 40 53.31 40.07Z" fill="#D9D9D9"/><path d="M46.61 26.64C46.55 26.64 46.61 26.83 46.75 26.84 46.89 26.85 46.83 26.84 46.9 26.76 46.97 26.68 46.83 26.63 46.79 26.61 46.7288 26.5886 46.661 26.6 46.61 26.64Z" fill="#D9D9D9"/><path d="M63.26 53.69C63.41 53.69 63.47 53.63 63.47 53.48L63.23 53.48Z" fill="#D9D9D9"/><path d="M53.53 67.23C53.5445 67.1879 53.5445 67.1421 53.53 67.1 53.53 67.1 53.53 67.02 53.41 66.94 53.3847 67.0015 53.3646 67.0651 53.35 67.13 53.3637 67.1745 53.3919 67.2132 53.43 67.24 53.463 67.253 53.5002 67.2493 53.53 67.23Z" fill="#D9D9D9"/><path d="M12 44.32C11.89 44.32 11.87 44.38 11.82 44.43 11.77 44.48 11.82 44.43 11.82 44.43 11.82 44.43 11.88 44.43 11.91 44.43 11.94 44.43 12.09 44.43 12.07 44.31 12.05 44.19 12 44.33 12 44.32Z" fill="#D9D9D9"/><path d="M49 24 49.19 23.94C49.07 23.91 49.07 23.91 49 24Z" fill="#D9D9D9"/><path d="M52.18 34.18C52.2048 34.2177 52.2352 34.2514 52.27 34.28 52.27 34.28 52.27 34.28 52.35 34.28L52.27 34.18C52.27 34.18 52.22 34.17 52.18 34.18Z" fill="#D9D9D9"/><path d="M53.93 34.56C53.93 34.56 53.93 34.65 54 34.65 54.07 34.65 54.08 34.65 54.11 34.59 54.14 34.53 54.11 34.51 54.11 34.51Z" fill="#D9D9D9"/><path d="M55.18 35.32 55.07 35.24C55.07 35.24 55.07 35.3 55.07 35.31 55.07 35.32 55.13 35.37 55.16 35.4Z" fill="#D9D9D9"/><path d="M49.73 38C49.73 38 49.73 37.92 49.73 37.92L49.63 37.92C49.6246 37.9464 49.6246 37.9736 49.63 38 49.63 38 49.71 38 49.73 38Z" fill="#D9D9D9"/><path d="M50.19 37.83C50.19 37.83 50.19 37.83 50.19 37.77 50.1741 37.7281 50.154 37.6879 50.13 37.65 50.1264 37.6933 50.1264 37.7367 50.13 37.78 50.13 37.78 50.17 37.82 50.19 37.83Z" fill="#D9D9D9"/><path d="M50.15 37.65 50.16 37.66 50.16 37.65 50.15 37.65Z" fill="#D9D9D9"/><path d="M43.07 30.76C43.07 30.76 43.07 30.7 43.01 30.7 42.95 30.7 43.01 30.7 42.93 30.7L43.02 30.79Z" fill="#D9D9D9"/><path d="M59.64 27.5 59.64 27.5Z" fill="#D9D9D9"/><path d="M64.56 49.74 65.1 49.63C65.3576 49.565 65.5905 49.4259 65.77 49.23 65.8012 49.1393 65.8012 49.0407 65.77 48.95 65.7348 48.8054 65.7348 48.6546 65.77 48.51 65.84 48.3 65.77 48.17 65.55 48.06 65.3921 47.9508 65.1776 47.9766 65.05 48.12L65 48C65 47.69 65 47.64 64.68 47.63L64.45 47.63C64.4647 47.5312 64.5347 47.4496 64.63 47.42 64.69 47.42 64.8 47.42 64.78 47.27 64.6629 47.1873 64.5234 47.1419 64.38 47.14 64.2813 47.1379 64.1862 47.1027 64.11 47.04 64.0146 46.9443 63.8851 46.8903 63.75 46.89L63.26 46.79C63.285 46.5961 63.1847 46.4076 63.01 46.32L62.4 45.91C62.31 45.61 62.58 45.55 62.7 45.36 62.34 45.28 62.41 44.99 62.35 44.76 62.29 44.53 61.97 44.57 61.96 44.29 61.96 44.21 61.79 44.19 61.8 44.03 61.81 43.87 61.67 43.81 61.6 43.7 61.53 43.59 61.34 43.36 61.22 43.18L60.87 42.72C60.6705 42.9259 60.5381 43.1874 60.49 43.47 60.49 43.6 60.41 43.76 60.26 43.84 59.9525 44.0721 59.6164 44.2637 59.26 44.41L58.8 44C58.7426 43.945 58.6689 43.9099 58.59 43.9 58.4771 43.8853 58.3629 43.8853 58.25 43.9 58.2286 43.6295 58.1817 43.3617 58.11 43.1 58.0386 42.7652 58.07 42.4167 58.2 42.1 58.11 42.1 58 42.16 57.97 42.1 57.94 42.04 57.59 41.98 57.41 41.92 57.23 41.86 56.92 41.85 56.92 41.52 56.92 41.52 56.92 41.47 56.86 41.44 56.57 41.1605 56.231 40.9367 55.86 40.78L55.63 40.86C55.5117 40.9181 55.3818 40.9488 55.25 40.95 54.9 40.9 54.57 40.82 54.25 40.75 54.1377 40.7243 54.0243 40.7043 53.91 40.69 53.7391 40.6752 53.5751 40.7611 53.49 40.91 53.4157 41.0497 53.4444 41.2219 53.56 41.33L53.72 41.52 53.55 42.08C53.76 42.31 53.74 42.63 53.9 42.89L53.27 43.83C53.27 43.88 53.27 43.92 53.27 43.94L53.68 44.23C54.0164 44.4318 54.2386 44.7799 54.28 45.17 54.296 45.4424 54.3935 45.7038 54.56 45.92 54.3691 45.9399 54.1934 46.0331 54.07 46.18 53.7884 46.5539 53.3967 46.8302 52.95 46.97L52.65 47.11C52.7 47.23 52.74 47.33 52.79 47.43 52.8435 47.5122 52.8809 47.6038 52.9 47.7 52.9425 48.1176 53.0505 48.526 53.22 48.91 53.1471 49.0016 53.0865 49.1025 53.04 49.21 53.024 49.3194 53.024 49.4306 53.04 49.54L52.77 49.46 52.53 49.69C52.3558 49.7237 52.1815 49.6324 52.11 49.47 52.0368 49.3003 51.9057 49.162 51.74 49.08 51.6681 49.0378 51.6039 48.9837 51.55 48.92 51.41 48.74 51.28 48.55 51.14 48.35 51.14 48.11 51.26 47.86 51.14 47.63 51.0607 47.4622 51.0607 47.2678 51.14 47.1 51.1548 47.0274 51.1548 46.9526 51.14 46.88 51.0131 46.7531 50.8394 46.6844 50.66 46.69L49.96 46.69C49.8118 46.6922 49.6649 46.6615 49.53 46.6 49.195 46.4126 48.8392 46.265 48.47 46.16 48.341 46.1255 48.2258 46.0522 48.14 45.95 47.8858 45.6445 47.5314 45.4389 47.14 45.37 46.9942 45.343 46.8528 45.2959 46.72 45.23 46.4707 45.1244 46.1893 45.1244 45.94 45.23 45.8 45.23 45.64 45.38 45.45 45.23 45.3645 44.7992 45.2127 44.3843 45 44L44.33 44C44.27 43.91 44.16 43.81 44.16 43.71 44.064 43.2015 44.1564 42.6754 44.42 42.23 44.487 42.1343 44.5408 42.0301 44.58 41.92 44.6828 41.6784 44.8247 41.4554 45 41.26 45.09 41.14 45.23 41.06 45.31 40.94 45.39 40.82 45.65 40.83 45.58 40.59 45.6339 40.563 45.691 40.5428 45.75 40.53 45.91 40.53 46.08 40.53 46.24 40.46 46.3114 40.4294 46.3636 40.366 46.38 40.29 46.38 40.2106 46.3475 40.1347 46.29 40.08 46.21 40.02 46.1 40 46.03 39.94 45.96 39.88 46.03 39.84 45.95 39.79 46.21 39.79 46.46 39.96 46.71 39.79L46.93 39.44 47.25 39.5C47.5524 39.5579 47.8591 39.4225 48.02 39.16 48.11 39.02 48.24 38.91 48.34 38.78 48.44 38.65 48.44 38.61 48.49 38.55L48.36 38.34C48.55 38.08 48.89 37.95 48.99 37.6 48.9163 37.5592 48.846 37.5124 48.78 37.46 48.7438 37.4142 48.7228 37.3583 48.72 37.3 48.72 37.3 48.79 37.23 48.83 37.23L49.4 37.23C49.59 37.59 49.91 37.44 50.2 37.42L50 37 50.48 37.34C50.7607 37.2046 51.0285 37.044 51.28 36.86 51.4796 36.7608 51.6014 36.5526 51.59 36.33 51.34 36.08 51.02 35.85 50.98 35.43L51.54 35.25C51.54 35.25 51.54 35.17 51.6 35.13L51.37 34.95 51.46 34.86C51.4891 34.8252 51.5159 34.7884 51.54 34.75 51.03 34.58 51.03 34.58 50.83 34.25L50.08 34.12C49.8553 34.0651 49.6185 34.0899 49.41 34.19 49.24 34.51 49.41 34.68 49.65 34.84 49.65 35.12 49.37 35.11 49.22 35.22 49.1985 35.356 49.165 35.4899 49.12 35.62 49.0695 35.7215 49.0056 35.8156 48.93 35.9 48.93 35.9 48.87 35.9 48.84 35.9L48.65 35.61C48.52 35.76 48.52 35.89 48.65 35.99 48.7717 36.0706 48.8145 36.2291 48.75 36.36L48.38 36.59C48.2323 36.4792 48.092 36.359 47.96 36.23 47.8635 36.1413 47.7883 36.0319 47.74 35.91 47.74 35.76 47.64 35.57 47.9 35.52 47.9 35.52 47.96 35.45 47.96 35.4 47.9757 35.2306 47.9041 35.0648 47.77 34.96L47.3 34.64C47.143 34.698 47.0288 34.8351 47 35 47 35.19 47 35.41 46.75 35.52 46.623 35.5201 46.5199 35.4172 46.5198 35.2902 46.5198 35.2868 46.5199 35.2834 46.52 35.28 46.5525 35.034 46.4629 34.7876 46.28 34.62L46.41 34.4C46.25 34.4 46.09 34.26 45.98 34.3 45.87 34.34 45.6 34.3 45.43 34.16 45.26 34.02 45.43 34.11 45.43 34.05L45.65 33.89 45.54 33.66 45.87 33.66 45.19 33C45.1989 32.9102 45.1989 32.8198 45.19 32.73 45.1767 32.6509 45.146 32.5757 45.1 32.51 44.9 32.34 44.76 32.09 44.45 32.09 44.3727 32.0888 44.311 32.0252 44.3121 31.9479 44.3128 31.8995 44.3385 31.8549 44.38 31.83 44.5583 31.692 44.7136 31.5266 44.84 31.34L44.64 31.02C44.833 30.9452 45.047 30.9452 45.24 31.02 45.4833 31.1111 45.7566 31.0087 45.88 30.78 46.08 30.52 46.31 30.27 46.51 30.01 46.51 30.01 46.51 29.92 46.51 29.85 46.2951 29.7604 46.0622 29.7227 45.83 29.74 45.7031 29.7799 45.5669 29.7799 45.44 29.74 44.9964 29.5853 44.5136 29.5853 44.07 29.74 44.007 29.7715 43.9468 29.8083 43.89 29.85L44.04 30.09 43.7 30.09C43.7 30.38 43.7 30.64 43.7 30.91 43.7122 30.9925 43.743 31.0711 43.79 31.14 44.08 31.66 44.07 31.87 43.71 32.29L43.71 32.57C43.3 32.57 43.29 32.57 43.2 32.89 43.1964 32.9499 43.1964 33.0101 43.2 33.07L43.4 33.32 43.2 33.67C43.283 33.8955 43.4629 34.0717 43.69 34.15 43.8602 34.2049 44.034 34.2483 44.21 34.28 44.39 34.28 44.56 34.45 44.76 34.43 44.818 34.4481 44.8503 34.5098 44.8322 34.5678 44.8214 34.6022 44.7945 34.6292 44.76 34.64 44.6834 34.6455 44.6066 34.6455 44.53 34.64L44.33 35.03C44.52 35.17 44.56 34.83 44.75 34.94L44.81 35.28C44.49 35.51 44.27 35.88 43.81 35.83 43.71 35.95 43.67 36.05 43.74 36.17 43.8308 36.2985 43.8497 36.4644 43.79 36.61L43.45 36.53C43.3029 36.5054 43.2037 36.3662 43.2283 36.2191 43.2288 36.2161 43.2294 36.213 43.23 36.21 43.23 36.06 43.32 35.9 43.37 35.72 42.99 35.72 42.78 35.45 42.52 35.28L43.24 35.35 43.65 35.06C43.4722 34.8456 43.2783 34.645 43.07 34.46 42.8357 34.2964 42.5882 34.1526 42.33 34.03 42.25 34.13 42.14 34.21 42.11 34.31 42.0586 34.5638 41.8477 34.7544 41.59 34.78 41.59 34.78 41.59 34.78 41.59 34.86 41.59 34.94 41.59 34.86 41.59 34.86L41.67 34.86C41.9911 34.8887 42.2969 35.0104 42.55 35.21L42.55 35.21 42.55 35.21 42.55 35.21C42.4442 35.3671 42.2693 35.4638 42.08 35.47L42.02 35.96C41.8792 36.0189 41.7208 36.0189 41.58 35.96 41.3072 35.87 41.0128 35.87 40.74 35.96 40.3186 36.0742 39.8691 36.0166 39.49 35.8 39.3646 35.7132 39.2108 35.6775 39.06 35.7 38.75 35.78 38.59 35.49 38.34 35.41 38.26 35.41 38.2 35.24 38.14 35.14 38.08 35.04 37.89 34.82 37.62 34.9 37.3223 34.9998 37.0183 35.08 36.71 35.14 36.58 35.14 36.46 35.23 36.46 35.41 36.46 35.59 36.73 35.63 36.87 35.41 36.8995 35.4024 36.9305 35.4024 36.96 35.41 37.2408 35.4484 37.5253 35.3728 37.75 35.2 37.81 35.2 37.95 35.1 38 35.25 38.05 35.4 37.78 35.38 37.69 35.47 37.5372 35.6265 37.3287 35.7164 37.11 35.72 36.9609 35.7192 36.8354 35.8317 36.82 35.98 36.88 36.12 36.94 36.23 36.99 36.35 37.04 36.47 37.1 36.62 37.16 36.75L36.83 36.93C36.57 36.82 36.75 36.62 36.74 36.49 36.57 36.28 36.26 36.36 36.16 36.1L35.54 35.83C34.6193 36.1229 33.6341 36.1472 32.7 35.9 32.6659 35.7097 32.7925 35.5279 32.9828 35.4938 32.9918 35.4922 33.0009 35.4909 33.01 35.49 33.12 35.49 33.25 35.54 33.32 35.41 33.39 35.28 33.32 35.41 33.32 35.41 33.0908 35.0781 32.6846 34.9164 32.29 35 31.8486 35.0764 31.3944 35.0025 31 34.79 30.792 34.6816 30.564 34.617 30.33 34.6 30.1109 34.5816 29.9004 34.5057 29.72 34.38 29.345 34.1355 28.8897 34.0459 28.45 34.13 28.16 34.56 28.16 34.56 27.63 34.49 27.6698 34.2775 27.623 34.0578 27.5 33.88 27.33 34.05 27.11 34.13 27.15 34.41 27.15 34.41 27.06 34.53 27.02 34.52 26.8894 34.5103 26.7611 34.4799 26.64 34.43 26.4483 34.3238 26.2998 34.1541 26.22 33.95 26.115 33.7197 25.9304 33.535 25.7 33.43 25.7 33.43 25.64 33.43 25.61 33.43L25.7 33.63C25.59 33.74 25.5 33.86 25.39 33.95 25.2653 34.0845 25.08 34.145 24.9 34.11 24.6634 34.0618 24.4186 34.1372 24.25 34.31 24.1621 34.4105 24.0334 34.4657 23.9 34.46 23.7162 34.4613 23.5363 34.5132 23.38 34.61 23.38 34.61 23.29 34.61 23.25 34.61 23.25 34.36 23.47 34.32 23.65 34.29 23.8494 34.2904 24.0445 34.2312 24.21 34.12 24.3587 34.0005 24.5237 33.9028 24.7 33.83 24.6003 33.82 24.4997 33.82 24.4 33.83 24.219 33.782 24.0259 33.8312 23.89 33.96 23.89 33.96 23.77 33.96 23.71 34.02 23.4349 34.0855 23.1718 34.1934 22.93 34.34 22.7782 34.4584 22.5924 34.525 22.4 34.53 22.27 34.45 22.17 34.33 22.12 34.35 21.84 34.48 21.5 34.48 21.26 34.74L21.53 35.15C21.3591 35.0816 21.1814 35.0313 21 35 20.4976 34.9665 20.0137 34.7971 19.6 34.51 19.375 34.3677 19.1161 34.2883 18.85 34.28 18.3655 34.2833 17.8901 34.148 17.48 33.89 17.3203 33.7959 17.134 33.7572 16.95 33.78 16.815 33.7927 16.6813 33.8162 16.55 33.85 16.2915 33.9186 16.0176 33.901 15.77 33.8 15.5988 33.7308 15.4144 33.7001 15.23 33.71 14.9995 33.7308 14.7672 33.7001 14.55 33.62L13.88 33.42C13.6983 33.3849 13.5117 33.3849 13.33 33.42 13.1029 33.4652 12.8715 33.4853 12.64 33.48 12.4184 33.4948 12.2041 33.3971 12.07 33.22 11.9936 33.0724 11.8356 32.9855 11.67 33 11.5076 32.9753 11.3424 32.9753 11.18 33 11.0232 33.0659 10.8416 33.0164 10.74 32.88 10.74 32.88 10.63 32.81 10.61 32.79 10.38 32.79 10.33 33.15 10.06 32.95L10.2 32.68 9.67 32.54C9.58107 32.5918 9.49735 32.6521 9.42 32.72 9.20115 32.9331 8.90535 33.0486 8.6 33.04 8.51674 33.0449 8.43326 33.0449 8.35 33.04 8.09817 33.0186 7.84865 33.1018 7.66 33.27 7.34527 33.4995 6.97679 33.6441 6.59 33.69 6.47 33.88 6.24 33.98 6.15 34.22 6.01425 34.6533 5.6036 34.9408 5.15 34.92L4.55 34.92C4.50144 34.9308 4.45441 34.9476 4.41 34.97L4.33 35.38C4.44445 35.5184 4.59768 35.6194 4.77 35.67 5.20832 35.7996 5.5715 36.1083 5.77 36.52 6.0978 36.5985 6.43301 36.6421 6.77 36.65 6.84 36.81 6.71 37.06 7.01 37.07L7.01 37.07C7.09033 37.0221 7.17826 36.9883 7.27 36.97 7.49 36.97 7.64 37.07 7.6 37.16 7.56 37.25 7.38 37.26 7.26 37.27L7.26 37.27C7.19 37.39 7.04 37.35 6.97 37.42 6.81954 37.552 6.61665 37.6073 6.42 37.57L6.12 37.57C5.67 37.57 5.67 37.57 5.58 37.12 5.52 37.12 5.45 37.12 5.4 37.12 5.121 37.167 4.85515 37.2727 4.62 37.43 4.55439 37.4744 4.47881 37.5019 4.4 37.51 4.30179 37.5307 4.20494 37.5574 4.11 37.59 3.95 37.66 3.79 37.75 3.63 37.84 3.56218 37.8764 3.49847 37.92 3.44 37.97 3.64 38.22 3.93 38.14 4.16 38.27 4.12865 38.4806 4.19489 38.6941 4.34 38.85 4.59081 38.9853 4.88239 39.0244 5.16 38.96 5.54026 38.8604 5.93974 38.8604 6.32 38.96 6.53386 38.7583 6.80774 38.6319 7.1 38.6 7.16 38.6 7.26 38.6 7.31 38.69 7.36 38.78 7.31 38.84 7.31 38.9 7.28799 38.939 7.26797 38.979 7.25 39.02 7.29887 39.1334 7.33899 39.2504 7.37 39.37 7.44332 39.5489 7.35777 39.7533 7.17891 39.8266 7.15043 39.8383 7.12054 39.8461 7.09 39.85 6.98 39.85 6.86 39.85 6.74 39.85 6.64118 39.8513 6.54583 39.8866 6.47 39.95 6.24729 40.215 5.85597 40.259 5.58 40.05 5.58 40.05 5.58 40.05 5.5 40.05 5.34126 40.1321 5.2302 40.2839 5.2 40.46 5.18699 40.5236 5.15149 40.5804 5.1 40.62 4.82582 40.8068 4.63003 41.088 4.55 41.41 4.63 41.59 4.68 41.8 4.94 41.81 4.94 41.81 5.05 41.87 5.1 41.92 5.19291 42.0164 5.33266 42.0513 5.46 42.01 5.5264 42.0015 5.5936 42.0015 5.66 42.01 5.72549 42.022 5.78719 42.0494 5.84 42.09 5.85373 42.1288 5.85373 42.1712 5.84 42.21 5.82031 42.253 5.77725 42.2804 5.73 42.28 5.58 42.28 5.44 42.2 5.3 42.16 5.20229 42.122 5.09125 42.1549 5.03 42.24 4.98601 42.3352 5.01531 42.4482 5.1 42.51L5.64 42.95C5.79388 42.9867 5.95184 43.0035 6.11 43 6.26263 42.9297 6.40687 42.8425 6.54 42.74 6.6711 42.9156 6.77245 43.1115 6.84 43.32 6.7 43.57 6.84 43.79 6.84 44.05L7.4 43.79C7.46124 43.767 7.52876 43.767 7.59 43.79 7.82 43.91 8.13 43.84 8.28 44.13L8.36 44.13 8.51 43.83 8.78 44.02C9.02 44.02 9.19 43.84 9.44 43.95 9.12 44.24 9.16 44.63 9.07 44.95 8.86 45.11 8.62 45.2 8.52 45.46 8.52 45.46 8.42 45.53 8.36 45.56L8.04 45.7C7.8 45.8 7.59 45.91 7.52 46.19 7.49177 46.2795 7.39629 46.3292 7.30675 46.301 7.29754 46.2981 7.28859 46.2944 7.28 46.29 7.28 46.29 7.19 46.29 7.14 46.23 6.92088 46.2102 6.70342 46.2827 6.54 46.43 6.42062 46.5298 6.36992 46.6897 6.41 46.84L6.41 46.84C6.48931 46.832 6.5669 46.8118 6.64 46.78 6.76729 46.7077 6.88778 46.624 7 46.53 7.11193 46.6136 7.25811 46.6361 7.39 46.59 7.70397 46.4262 8.04123 46.3115 8.39 46.25 8.50684 46.2312 8.60937 46.1616 8.67 46.06 8.78092 45.8729 8.95452 45.7312 9.16 45.66 9.44 45.51 9.8 45.44 9.93 45.08 9.93 45.08 9.98 45.08 10 45.02 10.2499 44.8562 10.5105 44.7092 10.78 44.58 11.1 44.46 11.22 44.13 11.5 43.99 11.5 43.99 11.5 43.93 11.5 43.87L11.13 43.68C11.28 43.37 11.3 43.34 11.55 43.22 11.7276 43.1375 11.8745 43.001 11.97 42.83 12.1564 42.4749 12.4505 42.1878 12.81 42.01 12.9364 41.931 13.0811 41.8862 13.23 41.88 13.4183 41.9195 13.5794 42.0403 13.67 42.21 13.5106 42.1907 13.3494 42.1907 13.19 42.21 13.0719 42.244 12.9578 42.291 12.85 42.35L12.5 43.02C12.4938 43.0698 12.4938 43.1202 12.5 43.17L12.76 43.28C12.76 43.48 12.47 43.39 12.48 43.61 12.6314 43.63 12.7853 43.602 12.92 43.53 13.12 43.41 13.32 43.3 13.51 43.16 13.648 43.048 13.8225 42.991 14 43 14.1926 43.0162 14.3619 42.8732 14.3781 42.6806 14.3837 42.6147 14.3704 42.5487 14.34 42.49 14.34 42.49 14.34 42.49 14.29 42.41 14.22 42.21 14.29 42.13 14.53 42.16 14.7342 42.2058 14.9482 42.1737 15.13 42.07 15.347 42.1891 15.5513 42.3298 15.74 42.49 15.866 42.6188 16.0625 42.6474 16.22 42.56 16.3823 42.8053 16.6674 42.9402 16.96 42.91L17.5 42.91C17.6683 42.9302 17.8352 42.9602 18 43 18.23 42.81 18.26 43.16 18.43 43.17 18.6 43.18 18.69 43.17 18.82 43.17 18.95 43.17 19.01 43.11 19.11 43.09 19.21 43.07 19.17 43.09 19.22 43.09L19.22 43.38C19.2733 43.4159 19.3303 43.4461 19.39 43.47 19.7216 43.5815 20.0181 43.7781 20.25 44.04 20.3371 44.1193 20.4391 44.1804 20.55 44.22 20.6892 44.3004 20.8608 44.3004 21 44.22 21 44.04 20.74 44.01 20.73 43.81 20.9518 43.8379 21.1534 43.9531 21.29 44.13 21.36 44.25 21.38 44.23 21.63 44.25 21.63 44.14 21.56 44.03 21.53 43.91 21.524 43.8335 21.524 43.7565 21.53 43.68L21.61 43.74C21.81 43.99 21.87 44.37 22.26 44.43 22.26 44.43 22.26 44.43 22.32 44.51 22.4647 44.6494 22.5685 44.8258 22.62 45.02 22.6454 45.166 22.733 45.2937 22.86 45.37 22.86 45.37 22.86 45.45 22.91 45.49 22.9653 45.5126 23.0187 45.5394 23.07 45.57 23.26 45.75 23.25 45.81 23.01 46L23.01 46 23.01 46 23.01 46C23.1054 46.1079 23.2466 46.1637 23.39 46.15L23.39 46.42 23.65 46.21 23.65 46.64 24.04 46.72 24.11 47.04 24.49 47.15C24.3753 47.2164 24.3361 47.3632 24.4025 47.478 24.4049 47.482 24.4074 47.4861 24.41 47.49 24.46 47.59 24.55 47.68 24.49 47.81 24.4802 47.8528 24.4802 47.8972 24.49 47.94L24.77 48.21 25.07 48.14C25.07 48.34 25.07 48.5 25.07 48.66 25.1534 48.6988 25.2405 48.7289 25.33 48.75 25.5133 48.7909 25.6593 48.9292 25.71 49.11 25.7043 49.1765 25.7043 49.2435 25.71 49.31 25.81 49.53 25.92 49.74 26.04 49.96L26.11 49.96 26.45 49.96 26.78 50.32C26.5379 50.343 26.2938 50.3052 26.07 50.21 25.9467 50.1546 25.8198 50.1078 25.69 50.07 25.62 50.07 25.52 50.07 25.5 50.16 25.6734 50.3619 25.8756 50.5371 26.1 50.68 26.4003 50.9827 26.7616 51.2179 27.16 51.37 27.16 51.37 27.23 51.44 27.26 51.47 27.4748 51.6867 27.7767 51.7935 28.08 51.76 28.0893 51.687 28.0893 51.613 28.08 51.54 27.9926 51.357 27.8389 51.214 27.65 51.14 27.3377 51.013 27.1463 50.6955 27.18 50.36L27.38 50.36C27.38 50.36 27.46 50.36 27.46 50.36 27.46 50.62 27.74 50.65 27.87 50.81 28 50.97 28.12 50.94 28.3 50.95 28.35 51.25 28.71 51.35 28.75 51.69 28.79 52.03 28.91 52.3 28.62 52.6 28.6302 52.3791 28.5669 52.1611 28.44 51.98L28 52.08 27.56 52C27.5549 52.0632 27.5549 52.1268 27.56 52.19 27.64 52.39 27.75 52.58 27.82 52.78 27.8919 52.9951 27.9455 53.2159 27.98 53.44 27.9827 53.6047 27.9659 53.7692 27.93 53.93 27.8968 54.3771 27.8333 54.8215 27.74 55.26 27.6147 55.6057 27.6147 55.9843 27.74 56.33 27.8201 56.5702 27.8201 56.8298 27.74 57.07 27.74 57.16 27.69 57.26 27.67 57.36 27.7571 57.4821 27.8372 57.6089 27.91 57.74 27.96 57.88 27.96 58.04 28.01 58.18 28.0385 58.2753 28.0861 58.3638 28.15 58.44 28.21 58.53 28.33 58.6 28.37 58.7 28.41 58.8 28.59 58.92 28.74 58.96 28.7433 58.9966 28.7433 59.0334 28.74 59.07 28.6461 59.2577 28.7221 59.486 28.9098 59.5799 28.9098 59.5799 28.9099 59.58 28.91 59.58 28.96 59.58 29.02 59.69 29.01 59.73 28.94 59.95 29.09 60.07 29.2 60.21 29.31 60.35 29.71 60.7 29.74 61.1 30.0718 61.1495 30.3929 61.2543 30.69 61.41 30.9155 61.515 31.1299 61.6423 31.33 61.79 31.4441 61.8895 31.5303 62.017 31.58 62.16 31.75 62.55 31.95 62.94 32.13 63.33 32.2239 63.4861 32.3042 63.6501 32.37 63.82 32.4178 63.9801 32.5205 64.1182 32.66 64.21 32.8201 64.3247 32.9736 64.4483 33.12 64.58 33.3545 64.7361 33.418 65.0527 33.2619 65.2872 33.2613 65.2881 33.2606 65.2891 33.26 65.29 33.16 65.29 33.05 65.23 32.97 65.29 33.0892 65.5349 33.3139 65.7118 33.58 65.77 33.7965 65.8514 33.9989 65.9661 34.18 66.11 34.3902 66.2263 34.5029 66.4636 34.46 66.7L34.46 66.95C34.63 67.08 34.79 67.2 34.94 67.33 35.09 67.46 35.48 67.68 35.61 67.99 35.61 67.99 35.66 67.99 35.72 67.99L35.92 67.79C35.8232 67.6459 35.7163 67.5089 35.6 67.38 35.5095 67.3195 35.4073 67.2786 35.3 67.26 35.11 66.81 34.95 66.41 34.79 66.02 34.7554 65.9628 34.7152 65.9092 34.67 65.86 34.3996 65.6134 34.173 65.3225 34 65 33.9858 64.9694 33.9654 64.9422 33.94 64.92 33.7399 64.635 33.5085 64.3733 33.25 64.14 33.1511 64.0494 33.0756 63.9362 33.03 63.81 32.9828 63.6357 32.946 63.4587 32.92 63.28 32.8747 63.1496 32.9243 63.0052 33.04 62.93 33.3638 62.9548 33.6716 63.0808 33.92 63.29 33.9672 63.597 34.0797 63.8902 34.25 64.15 34.3352 64.2909 34.3638 64.4588 34.33 64.62 34.41 64.62 34.5 64.62 34.55 64.7 34.77 64.89 34.92 65.18 35.24 65.26 35.24 65.26 35.32 65.33 35.32 65.37 35.3455 65.5355 35.4554 65.6757 35.61 65.74 35.7709 65.8532 35.9215 65.9803 36.06 66.12L36.06 66.52C36.3966 66.706 36.6978 66.9497 36.95 67.24 37.25 67.64 37.63 67.97 37.95 68.34 38.0051 68.4002 38.0461 68.472 38.07 68.55 38.15 68.75 38.22 68.95 38.31 69.19 38.4 69.43 38.31 69.47 38.23 69.58 38.15 69.69 38.23 69.92 38.29 70.07 38.3948 70.2234 38.5402 70.3446 38.71 70.42 38.8492 70.4691 38.9781 70.5437 39.09 70.64 39.3429 70.8611 39.6643 70.9883 40 71 40.1117 71.0197 40.2177 71.0641 40.31 71.13 40.7273 71.4358 41.2043 71.6505 41.71 71.76 41.7935 71.7796 41.8742 71.8098 41.95 71.85 42.2697 72.0125 42.6047 72.1432 42.95 72.24 43.1326 72.315 43.3374 72.315 43.52 72.24L43.84 72.1C44.1241 71.9304 44.4856 71.967 44.73 72.19 44.98 72.38 45.21 72.6 45.45 72.81 45.6408 73.043 45.8995 73.2107 46.19 73.29 46.4715 73.324 46.7454 73.4052 47 73.53 47.1699 73.5938 47.3436 73.6472 47.52 73.69 47.6795 73.7399 47.8505 73.7399 48.01 73.69 48.0797 73.681 48.1503 73.681 48.22 73.69 48.35 73.83 48.27 74.01 48.41 74.13 48.55 74.25 48.8 74.53 49.01 74.73 49.1838 74.8638 49.2655 75.0854 49.22 75.3 49.22 75.54 49.31 75.64 49.53 75.67L49.64 75.47C49.8127 75.6946 50.0352 75.876 50.29 76 50.34 76 50.37 76.11 50.41 76.16 50.45 76.21 50.34 76.37 50.54 76.35 50.74 76.33 50.75 76.49 50.84 76.48 51.28 76.42 51.56 76.73 51.84 76.94 52.12 77.15 52.05 77.12 52.25 76.94L52.12 76.65 52.55 76.26C52.6767 76.1419 52.8733 76.1419 53 76.26 53.0571 76.2909 53.1107 76.3277 53.16 76.37 53.1688 76.2509 53.1923 76.1333 53.23 76.02 53.1197 75.9795 53.0059 75.9494 52.89 75.93 52.7432 75.8919 52.5871 75.9173 52.46 76 52.2884 76.0966 52.1114 76.1834 51.93 76.26 51.7906 76.3251 51.6294 76.3251 51.49 76.26 51.33 76.2 51.13 76.26 51.03 76.01 50.93 75.76 50.87 75.85 50.79 75.77 50.5811 75.5738 50.4114 75.3396 50.29 75.08 50.2301 74.9811 50.2087 74.8636 50.23 74.75 50.33 74.24 50.34 73.75 50.48 73.22 50.5348 73.0408 50.5348 72.8492 50.48 72.67 50.34 72.67 50.18 72.61 50.09 72.47 50 72.33 49.78 72.29 49.6 72.26 49.4386 72.2248 49.2714 72.2248 49.11 72.26 48.6829 72.3214 48.2514 72.3482 47.82 72.34 47.6796 72.3388 47.5406 72.3117 47.41 72.26L47.57 72.02C47.63 71.93 47.74 71.83 47.75 71.73 47.7901 71.438 47.7901 71.142 47.75 70.85 47.7352 70.7909 47.7352 70.7291 47.75 70.67L47.99 70.67C48.0339 70.5643 48.0641 70.4534 48.08 70.34 48.0651 70.0019 48.1836 69.6715 48.41 69.42 48.6 69.19 48.54 69.08 48.21 69.03 48.0272 69.0102 47.8428 69.0102 47.66 69.03 47.4302 69.0691 47.2031 69.1225 46.98 69.19 46.62 69.28 46.58 69.32 46.54 69.69 46.5213 69.923 46.4421 70.1471 46.31 70.34 46.1859 70.5043 46.0524 70.6613 45.91 70.81 45.6408 70.6836 45.3292 70.6836 45.06 70.81 44.8169 70.8763 44.5697 70.9264 44.32 70.96 44.1562 70.8555 43.9819 70.7683 43.8 70.7 43.539 70.6334 43.3244 70.4483 43.22 70.2 43.12 70.02 43.01 69.85 42.9 69.69 42.5218 69.2136 42.3588 68.6014 42.45 68 42.4651 67.7836 42.4651 67.5664 42.45 67.35 42.45 67.22 42.45 67.08 42.45 66.95 42.4606 66.8526 42.5028 66.7613 42.57 66.69 42.7412 66.5686 42.7816 66.3314 42.6602 66.1602 42.6601 66.1601 42.66 66.1601 42.66 66.16 42.5804 65.9919 42.5492 65.8049 42.57 65.62 42.6456 65.1738 42.98 64.8158 43.42 64.71 43.6549 64.6678 43.8575 64.5204 43.97 64.31 43.97 64.24 43.97 64.17 44.05 64.09 44.1702 64.1737 44.3298 64.1737 44.45 64.09 44.6319 63.9643 44.8647 63.938 45.07 64.02 45.2774 64.1251 45.5226 64.1251 45.73 64.02L46.05 64.22C46.3092 64.425 46.6818 64.399 46.91 64.16 46.91 64.16 46.91 64.07 46.91 64.04 46.91 64.01 46.6 64.04 46.57 63.77 46.87 63.77 47.16 63.7 47.45 63.65 47.5643 63.6357 47.6777 63.6157 47.79 63.59 47.79 63.59 47.9 63.59 47.92 63.59 47.94 63.59 48.14 63.68 48.28 63.66 48.6613 63.5751 49.0597 63.6879 49.34 63.96 49.3932 64.0068 49.4541 64.0441 49.52 64.07L49.88 63.9C49.9613 63.8329 50.0787 63.8329 50.16 63.9 50.39 64.12 50.6 64.34 50.82 64.58 50.8461 64.6406 50.8461 64.7094 50.82 64.77 50.76 65.03 50.92 65.26 50.92 65.51 50.92 65.58 50.98 65.66 51.02 65.72 51.06 65.78 51.16 65.84 51.18 65.91 51.27 66.25 51.57 66.44 51.75 66.71 51.93 66.98 52.02 66.81 52.09 66.64 52.2496 66.2837 52.2496 65.8763 52.09 65.52 51.9603 65.1081 51.8067 64.7041 51.63 64.31 51.3315 63.7717 51.3704 63.1095 51.73 62.61 51.8 62.49 51.87 62.38 52.01 62.35 52.2088 62.2983 52.3869 62.1865 52.52 62.03 52.7133 61.7389 53.004 61.5262 53.34 61.43L53.34 61.43C53.5364 61.2081 53.7884 61.0424 54.07 60.95L54.07 60.66C54.36 60.55 54.36 60.55 54.47 60.37L54.17 60.22C54.31 60.13 54.42 60.05 54.42 59.86 54.42 59.67 54.24 59.69 54.17 59.56L54.17 58.84 54.17 58.84C54.17 58.65 54.17 58.45 54.17 58.26 54.17 58.07 54.17 58.09 54.36 58.14 54.3665 58.2299 54.3665 58.3201 54.36 58.41 54.3486 58.6432 54.4631 58.8646 54.66 58.99 54.92 58.66 54.92 58.66 54.78 58.33L54.78 58.23C54.778 58.1934 54.778 58.1566 54.78 58.12L55.08 58.12C55.3621 57.9247 55.5154 57.5913 55.48 57.25L55.7 57.05 55.7 57.05C55.81 56.76 56.08 56.73 56.32 56.72 56.662 56.6708 56.9974 56.5835 57.32 56.46 57.32 56.46 57.32 56.46 57.41 56.37L57.42 56C57.42 55.9 57.42 55.82 57.42 55.74 57.4789 55.3725 57.7371 55.0681 58.09 54.95 58.2648 54.8632 58.4263 54.7521 58.57 54.62 58.93 54.62 59.37 54.62 59.57 54.15 59.9195 54.1369 60.2614 54.0445 60.57 53.88 60.67 53.8267 60.79 53.8267 60.89 53.88 60.99 54.03 61.2 53.88 61.35 54.06 61.27 54.11 61.22 54.18 61.17 54.18 60.8194 54.1712 60.4827 54.3176 60.25 54.58 60.1366 54.6594 60.0723 54.7918 60.08 54.93 60.08 55.11 60.22 55.17 60.37 55.23 60.4908 55.1897 60.6053 55.1324 60.71 55.06 60.88 54.92 61.01 54.75 61.16 54.6 61.5989 54.5222 62.0258 54.3877 62.43 54.2 62.548 54.1452 62.6484 54.0587 62.72 53.95 62.8254 53.748 62.9802 53.576 63.17 53.45L63.17 53.26C63.17 53.17 63.25 53.05 63.12 53.01 62.99 52.97 62.95 53.1 62.9 53.17 62.85 53.24 62.66 53.6 62.53 53.83L62.11 53.83C61.8802 53.8103 61.6526 53.7702 61.43 53.71 61.242 53.6459 61.071 53.5399 60.93 53.4 60.8238 53.255 60.7364 53.0971 60.67 52.93 60.6417 52.883 60.6081 52.8394 60.57 52.8 60.57 52.65 60.74 52.55 60.66 52.41 60.3 52.41 60.3 52.41 60 52.13 60.08 52.13 60.15 52.07 60.19 52.13 60.3956 52.2181 60.6341 52.1704 60.79 52.01L61.02 51.84C61.0533 51.6384 60.9169 51.4479 60.7153 51.4146 60.7003 51.4122 60.6852 51.4106 60.67 51.41 60.3787 51.33 60.0713 51.33 59.78 51.41 59.42 51.54 59.07 51.69 58.72 51.85 58.4598 51.9653 58.2353 52.1483 58.07 52.38 57.9438 52.5361 57.8068 52.6832 57.66 52.82 57.66 52.82 57.55 52.94 57.45 52.89 57.35 52.84 57.45 52.82 57.45 52.8 57.4823 52.7214 57.5299 52.65 57.59 52.59 57.7813 52.4327 57.9438 52.2432 58.07 52.03 58.3355 51.5818 58.7859 51.2742 59.3 51.19 59.3394 51.1517 59.3731 51.1079 59.4 51.06 59.5055 50.7294 59.8239 50.5143 60.17 50.54 60.8195 50.505 61.4705 50.505 62.12 50.54 62.453 50.5604 62.787 50.5604 63.12 50.54 63.334 50.5324 63.5389 50.4512 63.7 50.31 63.8078 50.2288 63.9113 50.142 64.01 50.05 64.1453 49.8783 64.343 49.7668 64.56 49.74ZM45.9 39.74C45.807 39.796 45.6972 39.8172 45.59 39.8 45.69 39.68 45.8 39.73 45.9 39.77ZM31.33 37.58C31.2432 37.7072 31.1663 37.841 31.1 37.98 30.9889 38.0309 30.8611 38.0309 30.75 37.98 30.5 37.88 30.5 37.89 30.24 38.04L30.3 38.27C30.0337 38.5165 29.7053 38.6859 29.35 38.76 29.35 38.6 29.46 38.61 29.52 38.54 29.58 38.47 29.7 38.4 29.78 38.31 29.8032 38.2698 29.8032 38.2202 29.78 38.18 29.7509 38.1377 29.7011 38.1147 29.65 38.12 29.4658 38.1426 29.3048 38.2549 29.22 38.42 29.1594 38.6036 28.9615 38.7033 28.778 38.6427 28.7753 38.6419 28.7726 38.6409 28.77 38.64 28.6 38.64 28.41 38.64 28.23 38.5 28.32 38.41 28.46 38.35 28.49 38.25 28.52 38.15 28.68 38.08 28.77 37.95L28.71 37.7 29.18 37.7C29.24 37.56 29.18 37.53 29.08 37.5 28.8926 37.4144 28.6774 37.4144 28.49 37.5 28.3691 37.5478 28.24 37.5716 28.11 37.57 27.85 37.57 27.58 37.51 27.35 37.73L27.23 37.52C27.23 37.52 27.28 37.44 27.31 37.44L28.62 37.14 29.29 36.94C29.54 36.86 29.8 36.79 30.05 36.73 30.1961 36.6802 30.3562 36.7494 30.42 36.89L29.99 37.21C30.2 37.42 30.45 37.3 30.66 37.34 30.87 37.38 31.07 37.14 31.29 37.08 31.4368 37.1784 31.4761 37.3771 31.3777 37.524 31.364 37.5444 31.348 37.5632 31.33 37.58ZM35.87 40.66C35.6932 40.8535 35.4509 40.9746 35.19 41 35.0765 41.0227 34.9721 41.0784 34.89 41.16 34.73 41.3 34.59 41.47 34.42 41.6 34.3101 41.7009 34.1689 41.7609 34.02 41.77 33.76 41.77 33.68 41.91 33.6 42.11 33.29 42.17 33.03 42.24 32.76 42.27 32.5973 42.2901 32.4327 42.2901 32.27 42.27 32.1369 42.237 32.033 42.1331 32 42 32.07 41.85 32.21 42 32.35 41.9 32.4145 41.7828 32.4991 41.6779 32.6 41.59 32.7287 41.5205 32.8668 41.47 33.01 41.44 32.88 41.14 32.61 40.99 32.38 40.74 32.47 40.74 32.53 40.74 32.56 40.74 32.89 40.92 33.28 40.98 33.56 41.18 33.8246 41.375 34.1854 41.375 34.45 41.18 34.5737 41.0962 34.6848 40.9952 34.78 40.88 34.9951 40.5925 35.3618 40.4623 35.71 40.55 35.87 40.55 36.05 40.55 36.17 40.71 36.07 40.69 36.07 40.69 35.87 40.66ZM42.81 49.55C42.74 49.34 42.63 49.21 42.41 49.31 42.0913 49.0151 41.8479 48.6482 41.7 48.24L41.8 47.91C41.938 47.8252 42.112 47.8252 42.25 47.91 42.3905 47.9626 42.5028 48.0713 42.56 48.21 42.68 48.48 42.78 48.76 42.9 49.03 43.02 49.3 43.07 49.35 43.15 49.51L43.15 49.51ZM47.71 52.92 47.85 52.6C47.7795 52.6251 47.7124 52.6587 47.65 52.7 47.3913 52.8852 47.1043 53.0271 46.8 53.12 46.52 53.21 46.51 53.21 46.23 53L45.71 53.08C45.71 53 45.71 52.94 45.77 52.92 46.0579 52.6354 46.3973 52.4081 46.77 52.25 46.9358 52.2081 47.0769 52.0995 47.16 51.95 47.2077 51.8842 47.2691 51.8296 47.34 51.79L47.81 51.49 48.57 51.6C48.69 51.6 48.82 51.6 48.85 51.77 48.94 52.15 49.23 52.2 49.56 52.21 49.65 52.47 49.74 52.71 49.82 52.96 49.8485 53.034 49.8485 53.116 49.82 53.19 49.7583 53.2484 49.6617 53.2484 49.6 53.19 49.3705 53.0898 49.1095 53.0898 48.88 53.19 48.7523 53.2213 48.6215 53.2381 48.49 53.24 48.4075 53.2446 48.326 53.2198 48.26 53.17 48.1135 53.0221 47.9178 52.9332 47.71 52.92ZM50.25 55.16C50.14 55.07 50.25 54.98 50.25 54.91 50.51 54.69 50.46 54.41 50.38 54.08L49.69 53.73 49.44 54.05C49.35 54.17 49.31 54.36 49.09 54.34 49.03 54.34 48.93 54.43 48.91 54.49 48.7525 54.7994 48.7203 55.1575 48.82 55.49 48.9471 55.7922 48.8844 56.141 48.66 56.38 48.5929 56.453 48.5111 56.511 48.42 56.55 48.3097 56.6131 48.1692 56.5748 48.1061 56.4646 48.0998 56.4535 48.0944 56.442 48.09 56.43 48.0408 56.2913 48.0106 56.1467 48 56 47.9511 55.6649 47.9784 55.3231 48.08 55 48.13 54.85 48.17 54.69 48.22 54.52L47.92 54.52C48.0529 54.263 48.2139 54.0215 48.4 53.8 48.4196 53.772 48.4476 53.7509 48.48 53.74 48.86 53.74 49.2 53.46 49.6 53.56 49.74 53.56 50.05 53.5 50.04 53.56 50.03 53.62 50.25 53.42 50.35 53.43 50.8319 53.4517 51.3107 53.5186 51.78 53.63 51.8738 53.6601 51.9593 53.7114 52.03 53.78 52.1511 53.917 52.2646 54.0606 52.37 54.21 52.49 54.37 52.44 54.51 52.31 54.67L51.73 54.48 51.65 54.48C51.65 54.53 51.65 54.59 51.65 54.62 51.5048 54.8243 51.4278 55.0693 51.43 55.32 51.43 55.51 51.43 55.53 51.04 55.67 50.9907 55.5727 50.9473 55.4725 50.91 55.37 50.8 54.99 50.79 54.98 50.47 55.19 50.4 55.16 50.33 55.22 50.25 55.16ZM51.07 55.99C50.95 55.99 50.9 56.08 50.87 56.07 50.84 56.06 50.87 56.01 50.79 55.97 50.71 55.93 50.86 55.91 50.9 55.91ZM52.41 56.2C52.09 56.34 51.78 56.49 51.46 56.61 51.1825 56.7414 50.8566 56.7187 50.6 56.55 50.6 56.55 50.51 56.44 50.52 56.4 50.53 56.36 50.6 56.3 50.66 56.27 50.72 56.24 50.76 56.27 50.8 56.27 50.9932 56.2244 51.1786 56.1502 51.35 56.05 51.5131 55.91 51.7258 55.8415 51.94 55.86 52.0358 55.8544 52.1303 55.8342 52.22 55.8 52.4671 55.7308 52.7259 55.7138 52.98 55.75 52.8358 55.9503 52.6383 56.1062 52.41 56.2ZM54.41 55.31C54.2651 55.4152 54.0888 55.4681 53.91 55.46 53.85 55.46 53.82 55.46 53.79 55.46 53.4881 55.3601 53.1619 55.3601 52.86 55.46 52.7937 55.47 52.7263 55.47 52.66 55.46 52.6 55.46 52.57 55.35 52.6 55.29 52.6915 55.1459 52.8346 55.0422 53 55 53.1935 54.948 53.3908 54.9112 53.59 54.89 53.8041 54.9095 54.0199 54.8787 54.22 54.8 54.3318 54.7525 54.461 54.8046 54.5085 54.9164 54.509 54.9176 54.5095 54.9188 54.51 54.92 54.5798 55.0641 54.5196 55.2376 54.3755 55.3074 54.3736 55.3083 54.3718 55.3092 54.37 55.31Z" fill="#D9D9D9"/></svg>